<svg xmlns="http://www.w3.org/2000/svg" xmlns:xlink="http://www.w3.org/1999/xlink" viewBox="0 0 253.19 132.99"><defs><style>.cls-1,.cls-2,.cls-5{fill:none;}.cls-2,.cls-5{stroke:#68fff0;}.cls-2{stroke-miterlimit:10;stroke-width:0.25px;}.cls-3{fill:#68fff0;}.cls-4{clip-path:url(#clip-path);}.cls-5{stroke-miterlimit:10;stroke-width:0.1px;}</style><clipPath id="clip-path" transform="translate(55.64)"><circle class="cls-1" cx="66.48" cy="66.53" r="66.41"/></clipPath></defs><g id="Layer_2" data-name="Layer 2"><g id="Layer_1-2" data-name="Layer 1"><circle class="cls-2" cx="122.12" cy="66.49" r="66.36"/><polygon class="cls-3" points="59.62 64.25 55.76 62.02 55.76 66.48 59.62 64.25"/><polygon class="cls-3" points="184.62 64.25 188.48 62.02 188.48 66.48 184.62 64.25"/><polygon class="cls-3" points="122.12 4.07 124.35 0.2 119.89 0.2 122.12 4.07"/><polygon class="cls-3" points="122.12 129.07 124.35 132.94 119.89 132.94 122.12 129.07"/><polygon class="cls-3" points="77.92 22.38 76.77 18.07 73.62 21.23 77.92 22.38"/><polygon class="cls-3" points="166.31 110.77 170.62 111.92 167.47 115.08 166.31 110.77"/><polygon class="cls-3" points="166.31 22.38 170.62 21.23 167.47 18.07 166.31 22.38"/><polygon class="cls-3" points="77.92 110.77 76.77 115.08 73.62 111.92 77.92 110.77"/><g class="cls-4"><path class="cls-5" d="M-55.59,132.94H197.5c-.45-21.56-10.9-39.82-28.29-52.49a92.86,92.86,0,0,0-28.29-14.28c-14.1-9-29.71-12.93-46.24-9.22-12,2.69-23,8.46-34,13.92C50.36,76,39.61,81.39,28,82.82c-16.29,2-30.13-5.7-41.57-16.59a50.49,50.49,0,0,0-7.9,4,73,73,0,0,0-6.33,4.33c-2,1.56-5.26,3.51-5.78,6.17-.65,3.33,1.8,7.3,2.5,10.48,1.15,5.17-.86,8.2-5.5,10.35-3.71,1.72-7.75,2.74-11.33,4.74a9.47,9.47,0,0,0-5.22,6.48C-55,119.3-55.48,126.24-55.59,132.94Z" transform="translate(55.64)"/><path class="cls-5" d="M-13.73,66.28C-2.2,77,11.87,84.75,28.14,82.82,39.83,81.44,50.46,76,60.76,70.73c10.75-5.52,21.7-11.17,33.7-13.49,16.61-3.21,32.35,0,46.64,9" transform="translate(55.64)"/><path class="cls-5" d="M-14.11,66.43C-2.53,76.93,11.63,84.6,27.77,82.89c11.94-1.26,22.64-6.75,33.09-12.2,10.76-5.61,21.79-11.09,33.91-13,16.6-2.63,32.41-.1,46.83,8.69" transform="translate(55.64)"/><path class="cls-5" d="M-14.71,66.69C-3,77,11.17,84.49,27.22,83,39.47,81.89,50.32,76.32,61,70.73S83,59.87,95.26,58.32c16.61-2.1,32.56-.31,47.16,8.31" transform="translate(55.64)"/><path class="cls-5" d="M-15.53,67.05c11.72,10,25.84,17.28,41.7,16.16,12.74-.9,23.93-6.58,35-12.35S83.65,60.29,96.28,59.11c16.53-1.55,32.54-.46,47.23,7.89" transform="translate(55.64)"/><path class="cls-5" d="M-16.54,67.53c11.89,9.78,26,16.82,41.84,15.92C38.48,82.71,49.93,77,61.43,71.09s22.8-10.12,35.69-11c16.58-1.1,32.82-.73,47.75,7.37" transform="translate(55.64)"/><path class="cls-5" d="M-17.72,68.13c11.9,9.4,25.85,16.15,41.38,15.67,13.91-.42,25.88-6.31,38-12.38,11.73-5.87,23.23-9.61,36.43-10.15,16.64-.68,33.15-1,48.34,6.82" transform="translate(55.64)"/><path class="cls-5" d="M-19.07,68.86C-6.66,78.2,7.72,84.77,23.59,84.18c14.07-.52,26-6.31,38.41-12.33a100.87,100.87,0,0,1,18.25-7.14,74.83,74.83,0,0,1,18.67-2.13c16.85-.25,33.78-1.36,49.36,6.23" transform="translate(55.64)"/><path class="cls-5" d="M-20.56,69.7c12.55,9,26.93,15.3,42.7,15,14.73-.27,27.18-6.2,40.19-12.33A96.37,96.37,0,0,1,80.25,65.7C87,64,93.61,64,100.55,64c16.86.13,34-1.55,49.74,5.66" transform="translate(55.64)"/><path class="cls-5" d="M-22.17,70.68C-9.47,79.23,4.72,85.33,20.3,85.37a71.91,71.91,0,0,0,21.06-3.23c7.48-2.27,14.25-5.89,21.33-9.14a89.69,89.69,0,0,1,18.74-6.51C88.33,65,95,65.3,102,65.49c17,.51,34.44-1.77,50.51,5.1" transform="translate(55.64)"/><path class="cls-5" d="M-23.9,71.79C-10.64,80.14,4,86.11,19.86,86.14a74.57,74.57,0,0,0,21.45-3.22c7.62-2.28,14.52-6,21.76-9.15a85.77,85.77,0,0,1,19.62-6.32c7-1.24,13.73-.64,20.78-.26,17.18.91,34.93-2,51.32,4.56" transform="translate(55.64)"/><path class="cls-5" d="M-25.72,73C-12,81,2.94,86.93,19.12,87a77.16,77.16,0,0,0,21.63-3c8-2.3,15.15-6.13,22.73-9.36a83.05,83.05,0,0,1,20.37-6.11c7.09-1,13.81-.2,20.89.37,17.49,1.4,35.66-2.11,52.5,4.12" transform="translate(55.64)"/><path class="cls-5" d="M-27.61,74.43c14,7.54,28.87,13.35,45,13.7A78.86,78.86,0,0,0,40.76,85c8.09-2.32,15.41-6.22,23.15-9.42a81,81,0,0,1,20.68-5.83c7.72-1,14.92.27,22.57,1,17.48,1.65,35.7-2.14,52.64,3.66" transform="translate(55.64)"/><path class="cls-5" d="M-29.57,76C-18.21,81.56-6.41,86.49,6.19,88.45a81,81,0,0,0,37.08-3c12.07-3.86,22.89-10.59,35.39-13.32a62,62,0,0,1,16.8-1.38c6.39.35,12.6,1.94,19,2.28,15.91.84,32.51-2,48,2.88" transform="translate(55.64)"/><path class="cls-5" d="M-31.56,77.65C-19.75,82.92-7.65,87.8,5.22,89.82a82.94,82.94,0,0,0,38.19-3c12.24-4,23.23-10.73,36-13.35a62.31,62.31,0,0,1,17.76-1.13c6.47.51,12.73,2.28,19.22,2.74,16.14,1.14,33-2.08,48.77,2.55" transform="translate(55.64)"/><path class="cls-5" d="M-33.28,79.58C-8.81,89.75,16.83,96.68,43,88.46c6.72-2.1,12.91-5.39,19.45-8A91.13,91.13,0,0,1,80.7,75.21a76.46,76.46,0,0,1,18-.93c6.71.43,13.27,1.84,20,2.2,16.27.87,33.22-1.35,49.12,3" transform="translate(55.64)"/><path class="cls-5" d="M-33.63,82.08c24.22,9.47,51.2,15.44,76.86,7.86,6.8-2,13-5.38,19.62-7.81A92.78,92.78,0,0,1,81.61,77.4c13.14-1.9,26.23-.49,39.42-.14,16.47.43,33.49.08,49.55,4.2" transform="translate(55.64)"/><path class="cls-5" d="M-33,85A148,148,0,0,0,1.14,93.09c13.64,1.48,27.86,2,41.27-1.35,7.26-1.85,13.75-5.41,20.79-7.83a94.41,94.41,0,0,1,19.49-4.36c13.29-1.64,27-1.68,40.42-1.65a211,211,0,0,1,50.19,5.72" transform="translate(55.64)"/><path class="cls-5" d="M-32,88.27c10.51,3.44,21.15,5,32.16,5.78,14,1,28.33,2.44,42.14-.63,7.46-1.66,14-5.26,21.22-7.61a102.28,102.28,0,0,1,21-4.11c6.89-.7,13.81-1,20.72-1.43S119,78.69,126,78.59c16.92-.25,33.7,3.37,50,7.35" transform="translate(55.64)"/><path class="cls-5" d="M-31,91.63c9.76,2.85,19.53,3.19,29.63,3.54,14.53.49,29.25,3,43.69.16,7.63-1.47,14.26-5.14,21.6-7.4a102,102,0,0,1,21.64-3.79c7.12-.61,14.26-.89,21.37-1.66,7.3-.81,14.4-2.81,21.76-3,17.13-.49,33.52,5,49.95,9" transform="translate(55.64)"/><path class="cls-5" d="M-30.75,95c9.26,2.43,18.38,1.73,27.84,1.78,15.08.08,30.2,3.43,45.22.78,7.75-1.37,14.42-5.12,21.89-7.27,7.22-2.09,14.74-2.87,22.22-3.39s15.19-.77,22.71-1.92c7.18-1.1,13.94-3.82,21.22-4.23,17.78-1,33.85,6.77,50.83,10.4" transform="translate(55.64)"/><path class="cls-5" d="M-31.67,98.05c9.21,2.29,18.13.87,27.47.85,15.38,0,30.79,3.68,46.14,1.21,8-1.28,14.81-5.25,22.54-7.32,7.27-2,14.83-2.47,22.32-2.85,7.88-.39,15.83-.55,23.62-2,7.49-1.38,14.28-5,21.94-5.55,18.24-1.39,33.9,8.32,51.27,11.54" transform="translate(55.64)"/><path class="cls-5" d="M-34.73,100.67c10,2.07,20.08,1.56,30.25,1.69,15.5.21,30.92,2.54,46.35-.08,8.15-1.38,15.38-5,23.33-7,7.32-1.82,14.89-2.26,22.41-2.5s15.27-.25,22.82-1.37,14.46-4,22.08-4.39c18.61-1,35.58,6.35,53.48,10" transform="translate(55.64)"/><path class="cls-5" d="M-39.7,102.87a251,251,0,0,0,34.25,3.81c16.14.81,32.11,1.09,48-2.23,8.06-1.68,15.6-5,23.64-6.7,7.09-1.44,14.36-1.56,21.58-1.41,7,.14,14.11.51,21.15,0,7.88-.57,15.45-2.77,23.37-3.13,18.94-.85,37.34,3.64,55.82,7" transform="translate(55.64)"/><path class="cls-5" d="M-45.24,105.05c12.92,2.36,25.68,5.2,38.79,6.38,17,1.52,33.4-.48,49.86-4.65,8-2,15.73-5.17,23.89-6.34a87.2,87.2,0,0,1,20.55,0c6.92.65,13.82,1.58,20.79,1.6,7.74,0,15.4-1.4,23.13-1.75,19.45-.9,39.11.61,58.37,3.31" transform="translate(55.64)"/><path class="cls-5" d="M-50,107.6c14.2,2.39,27.91,6.8,42.25,8.53a88.16,88.16,0,0,0,25.44-.38A232.67,232.67,0,0,0,44,109.41c8-2.3,16-5.23,24.35-6a75.77,75.77,0,0,1,19.25,1.18c6.65,1.11,13.25,2.56,20,3.19,7.9.74,15.8,0,23.7-.42,20.06-1,40.7-2.36,60.73-.26" transform="translate(55.64)"/><path class="cls-5" d="M-52.66,110.94c15,1.89,29.22,7.58,44.23,9.51a78.18,78.18,0,0,0,25.31-.56c9.47-1.87,18.66-4.93,27.89-7.7,7.92-2.37,15.94-4.81,24.22-5.19a72.85,72.85,0,0,1,19.3,2c6.45,1.4,12.82,3.16,19.35,4.16,8.13,1.26,16.35,1.12,24.54.8,10.84-.41,21.65-1.33,32.47-2.12,9.52-.71,19.31-1.75,28.86-.86" transform="translate(55.64)"/><path class="cls-5" d="M-53.67,114.93c15.19,1.85,29.84,6.72,45.09,8.44a85,85,0,0,0,25.38-.76c9.37-1.73,18.52-4.39,27.72-6.79,8.09-2.12,16.09-4.14,24.5-4.25a100.48,100.48,0,0,1,20.32,2.11c6.77,1.29,13.48,2.89,20.3,3.89,8.49,1.25,16.89,1.14,25.44.75,10.58-.49,21.12-1.37,31.67-2.18,9.33-.72,18.79-1.67,28.16-1.22" transform="translate(55.64)"/><path class="cls-5" d="M-54.49,119.11c15.06,1.28,29.83,4.86,44.91,6.09,18,1.48,35-2,52.62-5.35,8.54-1.65,17-3.16,25.71-3.21a157.37,157.37,0,0,1,21.91,1.66c7.52,1,15,2.27,22.57,3.07a174.58,174.58,0,0,0,24.84.53c19.25-.73,38.66-3.39,57.93-2.79" transform="translate(55.64)"/><path class="cls-5" d="M-55.09,123.51c15.14.55,30.17,2.78,45.31,3.39,17.53.71,34.64-1.05,52-3A263.6,263.6,0,0,1,92,123c16.73,1.26,33.25,2.59,50,2.2,18.24-.42,36.56-2.14,54.81-1.64" transform="translate(55.64)"/><path class="cls-5" d="M-55.46,128.11c15,0,29.92.95,44.89,1.08,17.42.16,34.77-.23,52.18-.91s34.73-1,52.13-.48c17.17.48,34.31,1,51.49.84,17.36-.13,34.74-.91,52.09-.53" transform="translate(55.64)"/><path class="cls-5" d="M192.21,132.94c-.1-12-4.28-24.19-10.22-34.63-4.43-7.81-11.3-13.9-18.5-19.15a146.61,146.61,0,0,0-17.94-11.31c-3.44-1.81-7.41-3.14-10.64-5.27" transform="translate(55.64)"/><path class="cls-5" d="M186.34,132.94c-.14-6.93-2.38-13-4.65-19.48-2-5.67-3.88-11.53-6.36-17-3.66-8.06-10.84-13.35-18-18.15-5.85-3.9-11.41-8.15-17.4-11.85-3.36-2.07-8-3.85-10.84-6.66" transform="translate(55.64)"/><path class="cls-5" d="M180,132.94c-.34-6.92-3.44-12.46-6-18.75-2.45-6.13-3.63-12.52-5.58-18.79a21.59,21.59,0,0,0-7.65-11.3,76.06,76.06,0,0,0-10-6.35c-6.08-3.45-11.39-8.38-17.11-12.42-3.2-2.27-7.82-4.45-10.26-7.59" transform="translate(55.64)"/><path class="cls-5" d="M173.05,132.94c-.64-7.1-4.81-12.08-7.66-18.38-3-6.69-3.25-14.06-4.72-21.15-1.06-5.09-2.84-8.38-7.25-11.22a74,74,0,0,0-9.56-4.75c-6-2.76-11-8.34-16.16-12.47-3-2.42-8-5.17-9.93-8.6" transform="translate(55.64)"/><path class="cls-5" d="M165.7,132.94c-1-7.35-6.27-11.56-9.42-17.94-3.34-6.77-2.72-14.87-3.48-22.19-.29-2.89-.46-6.81-2.47-9.1a13.9,13.9,0,0,0-3.94-2.81c-3-1.6-6.33-2.49-9.52-3.63s-5.42-3.54-8-5.87-5-4.55-7.55-6.81c-2.81-2.52-7.39-5.48-9-9" transform="translate(55.64)"/><path class="cls-5" d="M157.93,132.94c-1.25-7.12-6.87-10.59-10.48-16.44-4.45-7.19-2.59-17.16-2.84-25.21-.08-2.7.06-6.43-1.62-8.7a9.47,9.47,0,0,0-3.76-2.6c-3-1.38-6.26-1.91-9.4-2.83-3.31-1-5.26-3.44-7.66-5.79l-6.74-6.59c-2.64-2.6-7-5.79-8.43-9.35" transform="translate(55.64)"/><path class="cls-5" d="M149.78,132.94c-1.51-7.46-8.23-10.25-12-16.37-4.41-7.19-1.68-17.73-1.34-25.63.22-5.1.31-9.26-4.77-11.49-2.8-1.23-5.9-1.58-8.81-2.45-3.24-1-5.13-3.51-7.41-5.86s-4.29-4.42-6.4-6.67c-2.35-2.49-6-5.45-7.27-8.71" transform="translate(55.64)"/><path class="cls-5" d="M141.3,132.94c-1.58-7.7-9.15-9.91-12.89-16.26-4.36-7.39-.74-18.19,0-26.11.49-4.95.41-8.64-4.34-11-2.53-1.28-5.38-1.78-8-2.82-2.83-1.12-4.58-3.37-6.63-5.52s-4.07-4.3-6.06-6.49c-2.19-2.41-5.4-5.15-6.73-8.18" transform="translate(55.64)"/><path class="cls-5" d="M132.52,132.94c-.72-4.06-2.47-6.13-5.62-8.76-2.86-2.38-6-4.59-7.69-8-3.32-6.87-.18-15.77,1.16-22.79,1-5.06,1.28-9.15-3-12.59-2.35-1.88-5.25-2.9-7.75-4.56-4.47-3-8.17-7.7-11.79-11.62q-3.12-3.39-6.13-6.9" transform="translate(55.64)"/><path class="cls-5" d="M123.49,132.94c-.85-4.1-2.6-6.49-5.58-9.42-2.65-2.6-5.71-5.16-7.09-8.72-2.56-6.58.69-14.71,1.88-21.25.83-4.56.27-7.72-2.73-11.26-2.19-2.58-5.07-4.45-7.49-6.78-3.62-3.49-7-7.32-10.45-11-1.58-1.67-3.36-4.18-5.29-5.34" transform="translate(55.64)"/><path class="cls-5" d="M114.23,132.94c-1.41-7.35-7-11.35-10.18-17.78-3-6.24-.5-13.77.59-20.21.78-4.69.17-8.07-2.51-12-1.91-2.8-4.43-5.08-6.56-7.71-2.93-3.61-6-7-9.24-10.37-.85-.88-3.25-4.11-4.45-3.91" transform="translate(55.64)"/><path class="cls-5" d="M104.8,132.94A33.18,33.18,0,0,0,100.58,121a52.43,52.43,0,0,1-4-8.09c-2.07-6.15-.3-12.7.22-19,.62-7.5-4.12-12.67-8-18.52C87.87,74,79,61.66,77.09,63" transform="translate(55.64)"/><path class="cls-5" d="M95.23,132.94c-.7-8-4.17-14.66-5.76-22.36-1.07-5.15-.73-10.28-.71-15.49,0-7.29-3.25-12.74-6.62-18.92-.56-1-8.46-12.74-9.78-11" transform="translate(55.64)"/><path class="cls-5" d="M85.56,132.94c-.4-12.61-3.2-25.2-4.76-37.73C80,88.8,78,83.29,75.5,77.4c-.41-1-6.57-11.77-7.83-10" transform="translate(55.64)"/><path class="cls-5" d="M75.83,132.94c.12-7.81.17-15.67-.36-23.46A77.53,77.53,0,0,0,72.7,95.31c-1.39-5.39-2.25-10.79-3.88-16.13-.28-.91-4.27-10.83-5.8-9.47" transform="translate(55.64)"/><path class="cls-5" d="M66.08,132.94c.37-7.72,1.46-15.4,1.67-23.11.12-4.6-1.34-8.46-3-12.67C62.93,92.26,63,86.69,62,81.54,61.78,80.16,60.32,72,58.4,72" transform="translate(55.64)"/><path class="cls-5" d="M56.35,132.94c.47-7.52,2.56-14.8,3.07-22.29.3-4.28-1-7.18-2.68-10.94-2-4.44-1.3-10.38-1.67-15.21A58.86,58.86,0,0,0,53.8,74.25" transform="translate(55.64)"/><path class="cls-5" d="M46.68,132.94c.55-6.92,2.76-13.54,3.35-20.41.34-4-1-6.86-2.29-10.45-1.56-4.4-.4-9.73-.32-14.32.07-3.62-.09-8.11,1.79-11.4" transform="translate(55.64)"/><path class="cls-5" d="M37.1,132.94c.52-6.16,2.7-12,3.28-18,.34-3.68-.73-7-1.47-10.54-1-4.93.31-9.41,1.06-14.25.7-4.56,1.5-8.32,4.66-11.81" transform="translate(55.64)"/><path class="cls-5" d="M27.67,132.94c.39-5.19,2.19-9.77,2.89-14.86.6-4.41-.37-8.83-.72-13.22-.4-5.1,1.32-8.6,2.85-13.22,1-3,1.51-5.9,3.6-8.44A23.94,23.94,0,0,1,40,80" transform="translate(55.64)"/><path class="cls-5" d="M18.42,132.94c.25-4.39,1.72-7.86,2.45-12.1.84-4.86.19-10,.17-14.93,0-3.12,0-6.5,1.54-9.32.82-1.51,2.21-2.59,3.05-4.06,1.63-2.88,2.17-5.75,4.76-8.08a24.34,24.34,0,0,1,5-3.09" transform="translate(55.64)"/><path class="cls-5" d="M9.38,132.94a23.15,23.15,0,0,1,.83-6.26c.4-1.29,1-2.5,1.29-3.84,1.11-5.2.67-10.84.92-16.14.16-3.24,0-7.45,2.07-10.22,1.15-1.55,3-2.22,4.27-3.66s1.59-3.17,2.66-4.61a14.07,14.07,0,0,1,3.5-3.3,22.52,22.52,0,0,1,5.86-2.52" transform="translate(55.64)"/><path class="cls-5" d="M.6,132.94a19.8,19.8,0,0,1,1-6.44,30.7,30.7,0,0,0,1.19-3.33c1.31-5.67,1-11.86,1.57-17.64.32-3.25.31-7.58,3-10,1.43-1.27,3.45-1.58,4.86-2.85s1.77-3,2.89-4.29a14.38,14.38,0,0,1,4.58-3.51,18.58,18.58,0,0,1,6.5-1.9" transform="translate(55.64)"/><path class="cls-5" d="M-7.88,132.94a20.81,20.81,0,0,1,1-6.6A24.08,24.08,0,0,0-5.42,122c1-5.25,1.37-10.65,2.33-15.93.68-3.79.9-8.07,3.9-10.87,1.4-1.31,3.27-2,4.76-3.13S8,89,9.47,87.65a16.49,16.49,0,0,1,4.61-3c2-.91,5-2,7.32-1.52" transform="translate(55.64)"/><path class="cls-5" d="M-16,132.94c.2-4.32,1.49-7.42,2.45-11.49,1.38-5.82,2.64-11.38,4.57-17.09,1.09-3.24,1.86-6.42,4-9.15A33.52,33.52,0,0,1-.62,91.07c3.15-2.77,5.4-5.6,9.47-7.19,2-.77,5.72-2.17,7.78-1.09" transform="translate(55.64)"/><path class="cls-5" d="M-23.79,132.94c.44-9.72,3.92-19.15,8.71-27.55,2.87-5,4.72-11.11,8.57-15.54a24.23,24.23,0,0,1,10.2-7.21c1.92-.68,6.2-2.22,8.11-.81" transform="translate(55.64)"/><path class="cls-5" d="M-31.14,132.94a62.52,62.52,0,0,1,2.53-14.5c1.65-6,5.36-9.8,9.36-14.42a22.77,22.77,0,0,0,5.14-9.18c.59-2.17.76-4.48,1.95-6.45C-10,84.77-5.3,82.31-1.4,81c1.85-.64,6.55-2.33,8.3-.73" transform="translate(55.64)"/><path class="cls-5" d="M-38,132.94a71.68,71.68,0,0,1,2.66-16.66c1.49-5.45,6.27-8.42,10.58-11.72,3.83-2.94,6.37-5.51,6.67-10.39.15-2.46-.43-5.1.5-7.45,1.53-3.88,7.49-6.53,11.2-7.86,1.85-.67,6.55-2.52,8.34-.94" transform="translate(55.64)"/><path class="cls-5" d="M-44.44,132.94A81.46,81.46,0,0,1-42,115.29c1.66-6.56,8.51-8.84,13.87-12,4.36-2.54,6.4-4.92,5.87-10.1-.27-2.71-1.46-5.63-.76-8.34,1-4.1,7.92-7.06,11.56-8.54,1.89-.77,6.33-2.84,8.26-1.48" transform="translate(55.64)"/><path class="cls-5" d="M-50.3,132.94A87.39,87.39,0,0,1-48,114.56c.9-3.72,2.47-5.56,5.86-7.47a88.81,88.81,0,0,1,8.32-3.78c4.77-2.11,8.23-4.22,7.55-9.82-.42-3.44-2.62-7.11-2-10.6.76-4.19,8.37-7.74,11.91-9.46,2-1,5.7-3.07,8-2.45" transform="translate(55.64)"/></g></g></g></svg>