<svg xmlns="http://www.w3.org/2000/svg" xmlns:xlink="http://www.w3.org/1999/xlink" viewBox="0 0 199.29 198.47"><defs><style>.cls-1{fill:url(#linear-gradient);}.cls-2{fill:url(#linear-gradient-2);}.cls-3{fill:url(#linear-gradient-3);}.cls-4{fill:url(#linear-gradient-4);}.cls-5{fill:url(#linear-gradient-5);}.cls-6{fill:url(#linear-gradient-6);}.cls-7{fill:url(#linear-gradient-7);}.cls-8{fill:url(#linear-gradient-8);}.cls-9{fill:url(#linear-gradient-9);}.cls-10{fill:url(#linear-gradient-10);}.cls-11{fill:url(#linear-gradient-11);}.cls-12{fill:url(#linear-gradient-12);}.cls-13{fill:url(#linear-gradient-13);}.cls-14{fill:url(#linear-gradient-14);}.cls-15{fill:url(#linear-gradient-15);}.cls-16{fill:url(#linear-gradient-16);}.cls-17{fill:url(#linear-gradient-17);}.cls-18{fill:url(#linear-gradient-18);}.cls-19{fill:url(#linear-gradient-19);}.cls-20{fill:url(#linear-gradient-20);}.cls-21{fill:url(#linear-gradient-21);}.cls-22{fill:url(#linear-gradient-22);}.cls-23{fill:url(#linear-gradient-23);}.cls-24{fill:url(#linear-gradient-24);}.cls-25{fill:url(#linear-gradient-25);}.cls-26{fill:url(#linear-gradient-26);}.cls-27{fill:url(#linear-gradient-27);}.cls-28{fill:url(#linear-gradient-28);}.cls-29{fill:url(#linear-gradient-29);}.cls-30{fill:url(#linear-gradient-30);}.cls-31{fill:url(#linear-gradient-31);}.cls-32{fill:url(#linear-gradient-32);}.cls-33{fill:url(#linear-gradient-33);}.cls-34{fill:url(#linear-gradient-34);}.cls-35{fill:url(#linear-gradient-35);}.cls-36{fill:url(#linear-gradient-36);}.cls-37{fill:url(#linear-gradient-37);}.cls-38{fill:url(#linear-gradient-38);}.cls-39{fill:url(#linear-gradient-39);}.cls-40{fill:url(#linear-gradient-40);}.cls-41{fill:url(#linear-gradient-41);}.cls-42{fill:url(#linear-gradient-42);}.cls-43{fill:url(#linear-gradient-43);}.cls-44{fill:url(#linear-gradient-44);}.cls-45{fill:url(#linear-gradient-45);}.cls-46{fill:url(#linear-gradient-46);}.cls-47{fill:url(#linear-gradient-47);}.cls-48{fill:url(#linear-gradient-48);}.cls-49{fill:url(#linear-gradient-49);}.cls-50{fill:url(#linear-gradient-50);}.cls-51{fill:url(#linear-gradient-51);}.cls-52{fill:url(#linear-gradient-52);}.cls-53{fill:url(#linear-gradient-53);}.cls-54{fill:url(#linear-gradient-54);}.cls-55{fill:url(#linear-gradient-55);}.cls-56{fill:url(#linear-gradient-56);}.cls-57{fill:url(#linear-gradient-57);}.cls-58{fill:url(#linear-gradient-58);}.cls-59{fill:url(#linear-gradient-59);}.cls-60{fill:url(#linear-gradient-60);}.cls-61{fill:url(#linear-gradient-61);}.cls-62{fill:url(#linear-gradient-62);}.cls-63{fill:url(#linear-gradient-63);}.cls-64{fill:url(#linear-gradient-64);}.cls-65{fill:url(#linear-gradient-65);}.cls-66{fill:url(#linear-gradient-66);}.cls-67{fill:url(#linear-gradient-67);}.cls-68{fill:url(#linear-gradient-68);}.cls-69{fill:url(#linear-gradient-69);}.cls-70{fill:url(#linear-gradient-70);}.cls-71{fill:url(#linear-gradient-71);}.cls-72{fill:url(#linear-gradient-72);}.cls-73{fill:url(#linear-gradient-73);}.cls-74{fill:url(#linear-gradient-74);}.cls-75{fill:url(#linear-gradient-75);}.cls-76{fill:url(#linear-gradient-76);}.cls-77{fill:url(#linear-gradient-77);}.cls-78{fill:url(#linear-gradient-78);}.cls-79{fill:url(#linear-gradient-79);}.cls-80{fill:url(#linear-gradient-80);}.cls-81{fill:url(#linear-gradient-81);}.cls-82{fill:url(#linear-gradient-82);}.cls-83{fill:url(#linear-gradient-83);}.cls-84{fill:url(#linear-gradient-84);}.cls-85{fill:url(#linear-gradient-85);}.cls-86{fill:url(#linear-gradient-86);}.cls-87{fill:url(#linear-gradient-87);}.cls-88{fill:url(#linear-gradient-88);}.cls-89{fill:url(#linear-gradient-89);}.cls-90{fill:url(#linear-gradient-90);}.cls-91{fill:url(#linear-gradient-91);}.cls-92{fill:url(#linear-gradient-92);}.cls-93{fill:url(#linear-gradient-93);}.cls-94{fill:url(#linear-gradient-94);}.cls-95{fill:url(#linear-gradient-95);}.cls-96{fill:url(#linear-gradient-96);}.cls-97{fill:url(#linear-gradient-97);}.cls-98{fill:url(#linear-gradient-98);}.cls-99{fill:url(#linear-gradient-99);}.cls-100{fill:url(#linear-gradient-100);}.cls-101{fill:url(#linear-gradient-101);}.cls-102{fill:url(#linear-gradient-102);}.cls-103{fill:url(#linear-gradient-103);}.cls-104{fill:url(#linear-gradient-104);}.cls-105{fill:url(#linear-gradient-105);}.cls-106{opacity:0.5;}.cls-107{fill:url(#linear-gradient-106);}.cls-108{fill:url(#linear-gradient-107);}.cls-109{fill:url(#linear-gradient-108);}.cls-110{fill:url(#linear-gradient-109);}.cls-111{fill:url(#linear-gradient-110);}.cls-112{fill:url(#linear-gradient-111);}.cls-113{fill:url(#linear-gradient-112);}.cls-114{fill:url(#linear-gradient-113);}.cls-115{fill:url(#linear-gradient-114);}.cls-116{fill:url(#linear-gradient-115);}.cls-117{fill:url(#linear-gradient-116);}.cls-118{fill:url(#linear-gradient-117);}.cls-119{fill:url(#linear-gradient-118);}.cls-120{fill:url(#linear-gradient-119);}.cls-121{fill:url(#linear-gradient-120);}.cls-122{fill:url(#linear-gradient-121);}.cls-123{fill:url(#linear-gradient-122);}.cls-124{fill:url(#linear-gradient-123);}.cls-125{fill:url(#linear-gradient-124);}.cls-126{fill:url(#linear-gradient-125);}.cls-127{fill:url(#linear-gradient-126);}.cls-128{fill:url(#linear-gradient-127);}.cls-129{fill:url(#linear-gradient-128);}.cls-130{fill:url(#linear-gradient-129);}.cls-131{fill:url(#linear-gradient-130);}.cls-132{fill:url(#linear-gradient-131);}.cls-133{fill:url(#linear-gradient-132);}.cls-134{fill:url(#linear-gradient-133);}.cls-135{fill:url(#linear-gradient-134);}.cls-136{fill:url(#linear-gradient-135);}.cls-137{fill:url(#linear-gradient-136);}.cls-138{fill:url(#linear-gradient-137);}.cls-139{fill:url(#linear-gradient-138);}.cls-140{fill:url(#linear-gradient-139);}.cls-141{fill:url(#linear-gradient-140);}.cls-142{fill:url(#linear-gradient-141);}.cls-143{fill:url(#linear-gradient-142);}.cls-144{fill:url(#linear-gradient-143);}.cls-145{fill:url(#linear-gradient-144);}.cls-146{fill:url(#linear-gradient-145);}.cls-147{fill:url(#linear-gradient-146);}.cls-148{fill:url(#linear-gradient-147);}.cls-149{fill:url(#linear-gradient-148);}.cls-150{fill:url(#linear-gradient-149);}.cls-151{fill:url(#linear-gradient-150);}.cls-152{fill:url(#linear-gradient-151);}.cls-153{fill:url(#linear-gradient-152);}.cls-154{fill:url(#linear-gradient-153);}.cls-155{fill:url(#linear-gradient-154);}.cls-156{fill:url(#linear-gradient-155);}.cls-157{fill:url(#linear-gradient-156);}.cls-158{fill:url(#linear-gradient-157);}.cls-159{fill:url(#linear-gradient-158);}.cls-160{fill:url(#linear-gradient-159);}.cls-161{fill:url(#linear-gradient-160);}.cls-162{fill:url(#linear-gradient-161);}.cls-163{fill:url(#linear-gradient-162);}.cls-164{fill:url(#linear-gradient-163);}.cls-165{fill:url(#linear-gradient-164);}.cls-166{fill:url(#linear-gradient-165);}.cls-167{fill:url(#linear-gradient-166);}.cls-168{fill:url(#linear-gradient-167);}.cls-169{fill:url(#linear-gradient-168);}.cls-170{fill:url(#linear-gradient-169);}.cls-171{fill:url(#linear-gradient-170);}.cls-172{fill:url(#linear-gradient-171);}.cls-173{fill:url(#linear-gradient-172);}.cls-174{fill:url(#linear-gradient-173);}.cls-175{fill:url(#linear-gradient-174);}.cls-176{fill:url(#linear-gradient-175);}.cls-177{fill:url(#linear-gradient-176);}.cls-178{fill:url(#linear-gradient-177);}.cls-179{fill:url(#linear-gradient-178);}.cls-180{fill:url(#linear-gradient-179);}.cls-181{fill:url(#linear-gradient-180);}.cls-182{fill:url(#linear-gradient-181);}.cls-183{fill:url(#linear-gradient-182);}.cls-184{fill:url(#linear-gradient-183);}.cls-185{fill:url(#linear-gradient-184);}.cls-186{fill:url(#linear-gradient-185);}.cls-187{fill:url(#linear-gradient-186);}.cls-188{fill:url(#linear-gradient-187);}.cls-189{fill:url(#linear-gradient-188);}.cls-190{fill:url(#linear-gradient-189);}.cls-191{fill:url(#linear-gradient-190);}.cls-192{fill:url(#linear-gradient-191);}.cls-193{fill:url(#linear-gradient-192);}.cls-194{fill:url(#linear-gradient-193);}.cls-195{fill:url(#linear-gradient-194);}.cls-196{fill:url(#linear-gradient-195);}.cls-197{fill:url(#linear-gradient-196);}.cls-198{fill:url(#linear-gradient-197);}.cls-199{fill:url(#linear-gradient-198);}.cls-200{fill:url(#linear-gradient-199);}.cls-201{fill:url(#linear-gradient-200);}.cls-202{fill:url(#linear-gradient-201);}.cls-203{fill:url(#linear-gradient-202);}.cls-204{fill:url(#linear-gradient-203);}.cls-205{fill:url(#linear-gradient-204);}.cls-206{fill:url(#linear-gradient-205);}.cls-207{fill:url(#linear-gradient-206);}.cls-208{fill:url(#linear-gradient-207);}.cls-209{fill:url(#linear-gradient-208);}.cls-210{fill:url(#linear-gradient-209);}.cls-211{fill:url(#linear-gradient-210);}</style><linearGradient id="linear-gradient" x1="170.79" y1="22.64" x2="170.79" y2="113.96" gradientUnits="userSpaceOnUse"><stop offset="0" stop-color="#4bd6de"/><stop offset="0.58" stop-color="#ad9869"/><stop offset="1" stop-color="#f26d17"/></linearGradient><linearGradient id="linear-gradient-2" x1="138.35" y1="22.64" x2="138.35" y2="113.96" xlink:href="#linear-gradient"/><linearGradient id="linear-gradient-3" x1="160.3" y1="22.64" x2="160.3" y2="113.96" xlink:href="#linear-gradient"/><linearGradient id="linear-gradient-4" x1="89.1" y1="22.64" x2="89.1" y2="113.96" xlink:href="#linear-gradient"/><linearGradient id="linear-gradient-5" x1="122.24" y1="22.64" x2="122.24" y2="113.96" xlink:href="#linear-gradient"/><linearGradient id="linear-gradient-6" x1="164.53" y1="22.64" x2="164.53" y2="113.96" xlink:href="#linear-gradient"/><linearGradient id="linear-gradient-7" x1="88.55" y1="22.63" x2="88.55" y2="113.96" xlink:href="#linear-gradient"/><linearGradient id="linear-gradient-8" x1="76.64" y1="22.63" x2="76.64" y2="113.96" xlink:href="#linear-gradient"/><linearGradient id="linear-gradient-9" x1="180.6" y1="22.64" x2="180.6" y2="113.96" xlink:href="#linear-gradient"/><linearGradient id="linear-gradient-10" x1="180.31" y1="22.64" x2="180.31" y2="113.96" xlink:href="#linear-gradient"/><linearGradient id="linear-gradient-11" x1="179.66" y1="22.64" x2="179.66" y2="113.96" xlink:href="#linear-gradient"/><linearGradient id="linear-gradient-12" x1="178.67" y1="22.64" x2="178.67" y2="113.96" xlink:href="#linear-gradient"/><linearGradient id="linear-gradient-13" x1="177.34" y1="22.63" x2="177.34" y2="113.96" xlink:href="#linear-gradient"/><linearGradient id="linear-gradient-14" x1="175.66" y1="22.64" x2="175.66" y2="113.96" xlink:href="#linear-gradient"/><linearGradient id="linear-gradient-15" x1="173.65" y1="22.64" x2="173.65" y2="113.96" xlink:href="#linear-gradient"/><linearGradient id="linear-gradient-16" x1="171.32" y1="22.64" x2="171.32" y2="113.96" xlink:href="#linear-gradient"/><linearGradient id="linear-gradient-17" x1="168.68" y1="22.64" x2="168.68" y2="113.96" xlink:href="#linear-gradient"/><linearGradient id="linear-gradient-18" x1="165.73" y1="22.64" x2="165.73" y2="113.96" xlink:href="#linear-gradient"/><linearGradient id="linear-gradient-19" x1="162.5" y1="22.64" x2="162.5" y2="113.96" xlink:href="#linear-gradient"/><linearGradient id="linear-gradient-20" x1="159.01" y1="22.64" x2="159.01" y2="113.96" xlink:href="#linear-gradient"/><linearGradient id="linear-gradient-21" x1="155.25" y1="22.64" x2="155.25" y2="113.96" xlink:href="#linear-gradient"/><linearGradient id="linear-gradient-22" x1="151.25" y1="22.64" x2="151.25" y2="113.96" xlink:href="#linear-gradient"/><linearGradient id="linear-gradient-23" x1="147.04" y1="22.64" x2="147.04" y2="113.96" xlink:href="#linear-gradient"/><linearGradient id="linear-gradient-24" x1="142.61" y1="22.64" x2="142.61" y2="113.96" xlink:href="#linear-gradient"/><linearGradient id="linear-gradient-25" x1="138" y1="22.64" x2="138" y2="113.96" xlink:href="#linear-gradient"/><linearGradient id="linear-gradient-26" x1="118.9" y1="22.64" x2="118.9" y2="113.96" xlink:href="#linear-gradient"/><linearGradient id="linear-gradient-27" x1="114.28" y1="22.64" x2="114.28" y2="113.96" xlink:href="#linear-gradient"/><linearGradient id="linear-gradient-28" x1="109.52" y1="22.64" x2="109.52" y2="113.96" xlink:href="#linear-gradient"/><linearGradient id="linear-gradient-29" x1="104.64" y1="22.64" x2="104.64" y2="113.96" xlink:href="#linear-gradient"/><linearGradient id="linear-gradient-30" x1="99.58" y1="22.64" x2="99.58" y2="113.96" xlink:href="#linear-gradient"/><linearGradient id="linear-gradient-31" x1="94.42" y1="22.64" x2="94.42" y2="113.96" xlink:href="#linear-gradient"/><linearGradient id="linear-gradient-32" x1="89.3" y1="22.64" x2="89.3" y2="113.96" xlink:href="#linear-gradient"/><linearGradient id="linear-gradient-33" x1="84.14" y1="22.64" x2="84.14" y2="113.96" xlink:href="#linear-gradient"/><linearGradient id="linear-gradient-34" x1="78.97" y1="22.64" x2="78.97" y2="113.96" xlink:href="#linear-gradient"/><linearGradient id="linear-gradient-35" x1="73.81" y1="22.64" x2="73.81" y2="113.96" xlink:href="#linear-gradient"/><linearGradient id="linear-gradient-36" x1="28.14" y1="22.64" x2="28.14" y2="113.96" xlink:href="#linear-gradient"/><linearGradient id="linear-gradient-37" x1="38" y1="22.64" x2="38" y2="113.96" xlink:href="#linear-gradient"/><linearGradient id="linear-gradient-38" x1="54.55" y1="22.64" x2="54.55" y2="113.96" xlink:href="#linear-gradient"/><linearGradient id="linear-gradient-39" x1="50.96" y1="22.64" x2="50.96" y2="113.96" xlink:href="#linear-gradient"/><linearGradient id="linear-gradient-40" x1="9.66" y1="22.64" x2="9.66" y2="113.96" xlink:href="#linear-gradient"/><linearGradient id="linear-gradient-41" x1="6.57" y1="22.64" x2="6.57" y2="113.96" xlink:href="#linear-gradient"/><linearGradient id="linear-gradient-42" x1="23.49" y1="22.64" x2="23.49" y2="113.96" xlink:href="#linear-gradient"/><linearGradient id="linear-gradient-43" x1="31.25" y1="22.64" x2="31.25" y2="113.96" xlink:href="#linear-gradient"/><linearGradient id="linear-gradient-44" x1="57.17" y1="22.64" x2="57.17" y2="113.96" xlink:href="#linear-gradient"/><linearGradient id="linear-gradient-45" x1="52.71" y1="22.64" x2="52.71" y2="113.96" xlink:href="#linear-gradient"/><linearGradient id="linear-gradient-46" x1="48.46" y1="22.64" x2="48.46" y2="113.96" xlink:href="#linear-gradient"/><linearGradient id="linear-gradient-47" x1="44.42" y1="22.64" x2="44.42" y2="113.96" xlink:href="#linear-gradient"/><linearGradient id="linear-gradient-48" x1="40.63" y1="22.64" x2="40.63" y2="113.96" xlink:href="#linear-gradient"/><linearGradient id="linear-gradient-49" x1="37.09" y1="22.64" x2="37.09" y2="113.96" xlink:href="#linear-gradient"/><linearGradient id="linear-gradient-50" x1="33.81" y1="22.64" x2="33.81" y2="113.96" xlink:href="#linear-gradient"/><linearGradient id="linear-gradient-51" x1="30.83" y1="22.64" x2="30.83" y2="113.96" xlink:href="#linear-gradient"/><linearGradient id="linear-gradient-52" x1="28.14" y1="22.64" x2="28.14" y2="113.96" xlink:href="#linear-gradient"/><linearGradient id="linear-gradient-53" x1="25.75" y1="22.64" x2="25.75" y2="113.96" xlink:href="#linear-gradient"/><linearGradient id="linear-gradient-54" x1="23.69" y1="22.64" x2="23.69" y2="113.96" xlink:href="#linear-gradient"/><linearGradient id="linear-gradient-55" x1="21.96" y1="22.64" x2="21.96" y2="113.96" xlink:href="#linear-gradient"/><linearGradient id="linear-gradient-56" x1="20.57" y1="22.63" x2="20.57" y2="113.96" xlink:href="#linear-gradient"/><linearGradient id="linear-gradient-57" x1="19.52" y1="22.64" x2="19.52" y2="113.96" xlink:href="#linear-gradient"/><linearGradient id="linear-gradient-58" x1="18.83" y1="22.64" x2="18.83" y2="113.96" xlink:href="#linear-gradient"/><linearGradient id="linear-gradient-59" x1="18.48" y1="22.64" x2="18.48" y2="113.96" xlink:href="#linear-gradient"/><linearGradient id="linear-gradient-60" x1="18.47" y1="22.64" x2="18.47" y2="113.96" xlink:href="#linear-gradient"/><linearGradient id="linear-gradient-61" x1="26.45" y1="22.64" x2="26.45" y2="113.96" xlink:href="#linear-gradient"/><linearGradient id="linear-gradient-62" x1="27.3" y1="22.64" x2="27.3" y2="113.96" xlink:href="#linear-gradient"/><linearGradient id="linear-gradient-63" x1="28.48" y1="22.64" x2="28.48" y2="113.96" xlink:href="#linear-gradient"/><linearGradient id="linear-gradient-64" x1="29.98" y1="22.64" x2="29.98" y2="113.96" xlink:href="#linear-gradient"/><linearGradient id="linear-gradient-65" x1="31.81" y1="22.64" x2="31.81" y2="113.96" xlink:href="#linear-gradient"/><linearGradient id="linear-gradient-66" x1="33.95" y1="22.64" x2="33.95" y2="113.96" xlink:href="#linear-gradient"/><linearGradient id="linear-gradient-67" x1="36.41" y1="22.64" x2="36.41" y2="113.96" xlink:href="#linear-gradient"/><linearGradient id="linear-gradient-68" x1="39.16" y1="22.64" x2="39.16" y2="113.96" xlink:href="#linear-gradient"/><linearGradient id="linear-gradient-69" x1="42.23" y1="22.64" x2="42.23" y2="113.96" xlink:href="#linear-gradient"/><linearGradient id="linear-gradient-70" x1="45.57" y1="22.64" x2="45.57" y2="113.96" xlink:href="#linear-gradient"/><linearGradient id="linear-gradient-71" x1="99.65" y1="22.64" x2="99.65" y2="113.96" xlink:href="#linear-gradient"/><linearGradient id="linear-gradient-72" x1="122.09" y1="22.64" x2="122.09" y2="113.96" xlink:href="#linear-gradient"/><linearGradient id="linear-gradient-73" x1="82.5" y1="22.64" x2="82.5" y2="113.96" xlink:href="#linear-gradient"/><linearGradient id="linear-gradient-74" x1="158.1" y1="22.64" x2="158.1" y2="113.96" xlink:href="#linear-gradient"/><linearGradient id="linear-gradient-75" x1="167.05" y1="22.64" x2="167.05" y2="113.96" xlink:href="#linear-gradient"/><linearGradient id="linear-gradient-76" x1="128.25" y1="22.64" x2="128.25" y2="113.96" xlink:href="#linear-gradient"/><linearGradient id="linear-gradient-77" x1="186.19" y1="22.64" x2="186.19" y2="113.96" xlink:href="#linear-gradient"/><linearGradient id="linear-gradient-78" x1="190.08" y1="22.64" x2="190.08" y2="113.96" xlink:href="#linear-gradient"/><linearGradient id="linear-gradient-79" x1="60.61" y1="22.64" x2="60.61" y2="113.96" xlink:href="#linear-gradient"/><linearGradient id="linear-gradient-80" x1="65.38" y1="22.64" x2="65.38" y2="113.96" xlink:href="#linear-gradient"/><linearGradient id="linear-gradient-81" x1="70.29" y1="22.64" x2="70.29" y2="113.96" xlink:href="#linear-gradient"/><linearGradient id="linear-gradient-82" x1="75.33" y1="22.64" x2="75.33" y2="113.96" xlink:href="#linear-gradient"/><linearGradient id="linear-gradient-83" x1="80.48" y1="22.64" x2="80.48" y2="113.96" xlink:href="#linear-gradient"/><linearGradient id="linear-gradient-84" x1="85.71" y1="22.64" x2="85.71" y2="113.96" xlink:href="#linear-gradient"/><linearGradient id="linear-gradient-85" x1="91" y1="22.64" x2="91" y2="113.96" xlink:href="#linear-gradient"/><linearGradient id="linear-gradient-86" x1="96.32" y1="22.64" x2="96.32" y2="113.96" xlink:href="#linear-gradient"/><linearGradient id="linear-gradient-87" x1="101.87" y1="22.64" x2="101.87" y2="113.96" xlink:href="#linear-gradient"/><linearGradient id="linear-gradient-88" x1="107.2" y1="22.64" x2="107.2" y2="113.96" xlink:href="#linear-gradient"/><linearGradient id="linear-gradient-89" x1="112.5" y1="22.64" x2="112.5" y2="113.96" xlink:href="#linear-gradient"/><linearGradient id="linear-gradient-90" x1="117.74" y1="22.64" x2="117.74" y2="113.96" xlink:href="#linear-gradient"/><linearGradient id="linear-gradient-91" x1="122.9" y1="22.64" x2="122.9" y2="113.96" xlink:href="#linear-gradient"/><linearGradient id="linear-gradient-92" x1="127.96" y1="22.64" x2="127.96" y2="113.96" xlink:href="#linear-gradient"/><linearGradient id="linear-gradient-93" x1="132.89" y1="22.64" x2="132.89" y2="113.96" xlink:href="#linear-gradient"/><linearGradient id="linear-gradient-94" x1="137.68" y1="22.64" x2="137.68" y2="113.96" xlink:href="#linear-gradient"/><linearGradient id="linear-gradient-95" x1="142.31" y1="22.64" x2="142.31" y2="113.96" xlink:href="#linear-gradient"/><linearGradient id="linear-gradient-96" x1="153.29" y1="22.64" x2="153.29" y2="113.96" xlink:href="#linear-gradient"/><linearGradient id="linear-gradient-97" x1="157.07" y1="22.64" x2="157.07" y2="113.96" xlink:href="#linear-gradient"/><linearGradient id="linear-gradient-98" x1="160.65" y1="22.64" x2="160.65" y2="113.96" xlink:href="#linear-gradient"/><linearGradient id="linear-gradient-99" x1="164.03" y1="22.64" x2="164.03" y2="113.96" xlink:href="#linear-gradient"/><linearGradient id="linear-gradient-100" x1="167.19" y1="22.64" x2="167.19" y2="113.96" xlink:href="#linear-gradient"/><linearGradient id="linear-gradient-101" x1="170.1" y1="22.64" x2="170.1" y2="113.96" xlink:href="#linear-gradient"/><linearGradient id="linear-gradient-102" x1="172.75" y1="22.64" x2="172.75" y2="113.96" xlink:href="#linear-gradient"/><linearGradient id="linear-gradient-103" x1="175.13" y1="22.64" x2="175.13" y2="113.96" xlink:href="#linear-gradient"/><linearGradient id="linear-gradient-104" x1="177.22" y1="22.64" x2="177.22" y2="113.96" xlink:href="#linear-gradient"/><linearGradient id="linear-gradient-105" x1="178.99" y1="22.64" x2="178.99" y2="113.96" xlink:href="#linear-gradient"/><linearGradient id="linear-gradient-106" x1="101.79" y1="53.93" x2="141.19" y2="53.93" gradientTransform="matrix(0.88, 0.48, -0.48, 0.88, 51.81, 49.69)" xlink:href="#linear-gradient"/><linearGradient id="linear-gradient-107" x1="78.84" y1="58.77" x2="113.15" y2="58.77" gradientTransform="matrix(0.88, 0.48, -0.48, 0.88, 51.81, 49.69)" xlink:href="#linear-gradient"/><linearGradient id="linear-gradient-108" x1="107.29" y1="34.55" x2="119.2" y2="34.55" gradientTransform="matrix(0.88, 0.48, -0.48, 0.88, 51.81, 49.69)" xlink:href="#linear-gradient"/><linearGradient id="linear-gradient-109" x1="38.64" y1="70.03" x2="75.94" y2="70.03" gradientTransform="matrix(0.88, 0.48, -0.48, 0.88, 51.81, 49.69)" xlink:href="#linear-gradient"/><linearGradient id="linear-gradient-110" x1="71.85" y1="92.45" x2="94.81" y2="92.45" gradientTransform="matrix(0.88, 0.48, -0.48, 0.88, 51.81, 49.69)" xlink:href="#linear-gradient"/><linearGradient id="linear-gradient-111" x1="106.2" y1="76.31" x2="126.95" y2="76.31" gradientTransform="matrix(0.88, 0.48, -0.48, 0.88, 51.81, 49.69)" xlink:href="#linear-gradient"/><linearGradient id="linear-gradient-112" x1="45.04" y1="94.81" x2="68.67" y2="94.81" gradientTransform="matrix(0.88, 0.48, -0.48, 0.88, 51.81, 49.69)" xlink:href="#linear-gradient"/><linearGradient id="linear-gradient-113" x1="26.27" y1="93.07" x2="68.72" y2="93.07" gradientTransform="matrix(0.88, 0.48, -0.48, 0.88, 51.81, 49.69)" xlink:href="#linear-gradient"/><linearGradient id="linear-gradient-114" x1="122.23" y1="22.74" x2="136.16" y2="22.74" gradientTransform="matrix(0.88, 0.48, -0.48, 0.88, 51.81, 49.69)" xlink:href="#linear-gradient"/><linearGradient id="linear-gradient-115" x1="121.99" y1="26.93" x2="135.95" y2="26.93" gradientTransform="matrix(0.88, 0.48, -0.48, 0.88, 51.81, 49.69)" xlink:href="#linear-gradient"/><linearGradient id="linear-gradient-116" x1="121.48" y1="31.1" x2="135.45" y2="31.1" gradientTransform="matrix(0.88, 0.48, -0.48, 0.88, 51.81, 49.69)" xlink:href="#linear-gradient"/><linearGradient id="linear-gradient-117" x1="120.73" y1="35.22" x2="134.64" y2="35.22" gradientTransform="matrix(0.88, 0.48, -0.48, 0.88, 51.81, 49.69)" xlink:href="#linear-gradient"/><linearGradient id="linear-gradient-118" x1="119.76" y1="39.28" x2="133.51" y2="39.28" gradientTransform="matrix(0.88, 0.48, -0.48, 0.88, 51.81, 49.69)" xlink:href="#linear-gradient"/><linearGradient id="linear-gradient-119" x1="118.53" y1="43.26" x2="132.11" y2="43.26" gradientTransform="matrix(0.88, 0.48, -0.48, 0.88, 51.81, 49.69)" xlink:href="#linear-gradient"/><linearGradient id="linear-gradient-120" x1="117.08" y1="47.14" x2="130.4" y2="47.14" gradientTransform="matrix(0.88, 0.48, -0.48, 0.88, 51.81, 49.69)" xlink:href="#linear-gradient"/><linearGradient id="linear-gradient-121" x1="115.41" y1="50.91" x2="128.41" y2="50.91" gradientTransform="matrix(0.88, 0.48, -0.48, 0.88, 51.81, 49.69)" xlink:href="#linear-gradient"/><linearGradient id="linear-gradient-122" x1="113.5" y1="54.55" x2="126.16" y2="54.55" gradientTransform="matrix(0.88, 0.48, -0.48, 0.88, 51.81, 49.69)" xlink:href="#linear-gradient"/><linearGradient id="linear-gradient-123" x1="111.4" y1="58.05" x2="123.63" y2="58.05" gradientTransform="matrix(0.88, 0.48, -0.48, 0.88, 51.81, 49.69)" xlink:href="#linear-gradient"/><linearGradient id="linear-gradient-124" x1="109.1" y1="61.38" x2="120.86" y2="61.38" gradientTransform="matrix(0.88, 0.48, -0.48, 0.88, 51.81, 49.69)" xlink:href="#linear-gradient"/><linearGradient id="linear-gradient-125" x1="106.61" y1="64.54" x2="117.86" y2="64.54" gradientTransform="matrix(0.88, 0.48, -0.48, 0.88, 51.81, 49.69)" xlink:href="#linear-gradient"/><linearGradient id="linear-gradient-126" x1="103.95" y1="67.52" x2="114.61" y2="67.52" gradientTransform="matrix(0.88, 0.48, -0.48, 0.88, 51.81, 49.69)" xlink:href="#linear-gradient"/><linearGradient id="linear-gradient-127" x1="101.11" y1="70.29" x2="111.17" y2="70.29" gradientTransform="matrix(0.88, 0.48, -0.48, 0.88, 51.81, 49.69)" xlink:href="#linear-gradient"/><linearGradient id="linear-gradient-128" x1="98.12" y1="72.85" x2="107.53" y2="72.85" gradientTransform="matrix(0.88, 0.48, -0.48, 0.88, 51.81, 49.69)" xlink:href="#linear-gradient"/><linearGradient id="linear-gradient-129" x1="95" y1="75.19" x2="103.69" y2="75.19" gradientTransform="matrix(0.88, 0.48, -0.48, 0.88, 51.81, 49.69)" xlink:href="#linear-gradient"/><linearGradient id="linear-gradient-130" x1="91.74" y1="77.29" x2="99.7" y2="77.29" gradientTransform="matrix(0.88, 0.48, -0.48, 0.88, 51.81, 49.69)" xlink:href="#linear-gradient"/><linearGradient id="linear-gradient-131" x1="79.14" y1="78.64" x2="82.28" y2="78.64" gradientTransform="matrix(0.88, 0.48, -0.48, 0.88, 51.81, 49.69)" xlink:href="#linear-gradient"/><linearGradient id="linear-gradient-132" x1="75.56" y1="79.96" x2="78.59" y2="79.96" gradientTransform="matrix(0.88, 0.48, -0.48, 0.88, 51.81, 49.69)" xlink:href="#linear-gradient"/><linearGradient id="linear-gradient-133" x1="71.95" y1="81.04" x2="74.72" y2="81.04" gradientTransform="matrix(0.88, 0.48, -0.48, 0.88, 51.81, 49.69)" xlink:href="#linear-gradient"/><linearGradient id="linear-gradient-134" x1="68.31" y1="81.88" x2="70.7" y2="81.88" gradientTransform="matrix(0.88, 0.48, -0.48, 0.88, 51.81, 49.69)" xlink:href="#linear-gradient"/><linearGradient id="linear-gradient-135" x1="64.52" y1="82.48" x2="66.54" y2="82.48" gradientTransform="matrix(0.88, 0.48, -0.48, 0.88, 51.81, 49.69)" xlink:href="#linear-gradient"/><linearGradient id="linear-gradient-136" x1="60.21" y1="82.83" x2="62.74" y2="82.83" gradientTransform="matrix(0.88, 0.48, -0.48, 0.88, 51.81, 49.69)" xlink:href="#linear-gradient"/><linearGradient id="linear-gradient-137" x1="55.79" y1="82.92" x2="59.09" y2="82.92" gradientTransform="matrix(0.88, 0.48, -0.48, 0.88, 51.81, 49.69)" xlink:href="#linear-gradient"/><linearGradient id="linear-gradient-138" x1="51.3" y1="82.76" x2="55.48" y2="82.76" gradientTransform="matrix(0.88, 0.48, -0.48, 0.88, 51.81, 49.69)" xlink:href="#linear-gradient"/><linearGradient id="linear-gradient-139" x1="46.75" y1="82.32" x2="51.9" y2="82.32" gradientTransform="matrix(0.88, 0.48, -0.48, 0.88, 51.81, 49.69)" xlink:href="#linear-gradient"/><linearGradient id="linear-gradient-140" x1="42.15" y1="81.63" x2="48.39" y2="81.63" gradientTransform="matrix(0.88, 0.48, -0.48, 0.88, 51.81, 49.69)" xlink:href="#linear-gradient"/><linearGradient id="linear-gradient-141" x1="-10.23" y1="53.76" x2="28.98" y2="53.76" gradientTransform="matrix(0.88, 0.48, -0.48, 0.88, 51.81, 49.69)" xlink:href="#linear-gradient"/><linearGradient id="linear-gradient-142" x1="11.77" y1="28.66" x2="22.49" y2="28.66" gradientTransform="matrix(0.88, 0.48, -0.48, 0.88, 51.81, 49.69)" xlink:href="#linear-gradient"/><linearGradient id="linear-gradient-143" x1="18.92" y1="56.39" x2="41.34" y2="56.39" gradientTransform="matrix(0.88, 0.48, -0.48, 0.88, 51.81, 49.69)" xlink:href="#linear-gradient"/><linearGradient id="linear-gradient-144" x1="14.63" y1="-10.38" x2="39.99" y2="-10.38" gradientTransform="matrix(0.88, 0.48, -0.48, 0.88, 51.81, 49.69)" xlink:href="#linear-gradient"/><linearGradient id="linear-gradient-145" x1="-9.62" y1="0.52" x2="-0.69" y2="0.52" gradientTransform="matrix(0.88, 0.48, -0.48, 0.88, 51.81, 49.69)" xlink:href="#linear-gradient"/><linearGradient id="linear-gradient-146" x1="-12.74" y1="38.02" x2="-2.41" y2="38.02" gradientTransform="matrix(0.88, 0.48, -0.48, 0.88, 51.81, 49.69)" xlink:href="#linear-gradient"/><linearGradient id="linear-gradient-147" x1="-2.75" y1="-23.26" x2="14.2" y2="-23.26" gradientTransform="matrix(0.88, 0.48, -0.48, 0.88, 51.81, 49.69)" xlink:href="#linear-gradient"/><linearGradient id="linear-gradient-148" x1="-3.99" y1="-30.41" x2="27.62" y2="-30.41" gradientTransform="matrix(0.88, 0.48, -0.48, 0.88, 51.81, 49.69)" xlink:href="#linear-gradient"/><linearGradient id="linear-gradient-149" x1="27.9" y1="75.54" x2="36.48" y2="75.54" gradientTransform="matrix(0.88, 0.48, -0.48, 0.88, 51.81, 49.69)" xlink:href="#linear-gradient"/><linearGradient id="linear-gradient-150" x1="24.05" y1="73.24" x2="33.33" y2="73.24" gradientTransform="matrix(0.88, 0.48, -0.48, 0.88, 51.81, 49.69)" xlink:href="#linear-gradient"/><linearGradient id="linear-gradient-151" x1="20.36" y1="70.72" x2="30.33" y2="70.72" gradientTransform="matrix(0.88, 0.48, -0.48, 0.88, 51.81, 49.69)" xlink:href="#linear-gradient"/><linearGradient id="linear-gradient-152" x1="16.89" y1="67.98" x2="27.46" y2="67.98" gradientTransform="matrix(0.88, 0.48, -0.48, 0.88, 51.81, 49.69)" xlink:href="#linear-gradient"/><linearGradient id="linear-gradient-153" x1="13.62" y1="65.03" x2="24.77" y2="65.03" gradientTransform="matrix(0.88, 0.48, -0.48, 0.88, 51.81, 49.69)" xlink:href="#linear-gradient"/><linearGradient id="linear-gradient-154" x1="10.57" y1="61.9" x2="22.25" y2="61.9" gradientTransform="matrix(0.88, 0.48, -0.48, 0.88, 51.81, 49.69)" xlink:href="#linear-gradient"/><linearGradient id="linear-gradient-155" x1="7.76" y1="58.59" x2="19.91" y2="58.59" gradientTransform="matrix(0.88, 0.48, -0.48, 0.88, 51.81, 49.69)" xlink:href="#linear-gradient"/><linearGradient id="linear-gradient-156" x1="5.19" y1="55.12" x2="17.78" y2="55.12" gradientTransform="matrix(0.88, 0.48, -0.48, 0.88, 51.81, 49.69)" xlink:href="#linear-gradient"/><linearGradient id="linear-gradient-157" x1="2.9" y1="51.5" x2="15.85" y2="51.5" gradientTransform="matrix(0.88, 0.48, -0.48, 0.88, 51.81, 49.69)" xlink:href="#linear-gradient"/><linearGradient id="linear-gradient-158" x1="0.87" y1="47.76" x2="14.14" y2="47.76" gradientTransform="matrix(0.88, 0.48, -0.48, 0.88, 51.81, 49.69)" xlink:href="#linear-gradient"/><linearGradient id="linear-gradient-159" x1="-0.9" y1="43.89" x2="12.66" y2="43.89" gradientTransform="matrix(0.88, 0.48, -0.48, 0.88, 51.81, 49.69)" xlink:href="#linear-gradient"/><linearGradient id="linear-gradient-160" x1="-2.34" y1="39.92" x2="11.39" y2="39.92" gradientTransform="matrix(0.88, 0.48, -0.48, 0.88, 51.81, 49.69)" xlink:href="#linear-gradient"/><linearGradient id="linear-gradient-161" x1="-3.51" y1="35.87" x2="10.37" y2="35.87" gradientTransform="matrix(0.88, 0.48, -0.48, 0.88, 51.81, 49.69)" xlink:href="#linear-gradient"/><linearGradient id="linear-gradient-162" x1="-4.38" y1="31.76" x2="9.59" y2="31.76" gradientTransform="matrix(0.88, 0.48, -0.48, 0.88, 51.81, 49.69)" xlink:href="#linear-gradient"/><linearGradient id="linear-gradient-163" x1="-4.93" y1="27.6" x2="9.05" y2="27.6" gradientTransform="matrix(0.88, 0.48, -0.48, 0.88, 51.81, 49.69)" xlink:href="#linear-gradient"/><linearGradient id="linear-gradient-164" x1="-5.18" y1="23.42" x2="8.74" y2="23.42" gradientTransform="matrix(0.88, 0.48, -0.48, 0.88, 51.81, 49.69)" xlink:href="#linear-gradient"/><linearGradient id="linear-gradient-165" x1="-5.19" y1="19.05" x2="8.74" y2="19.05" gradientTransform="matrix(0.88, 0.48, -0.48, 0.88, 51.81, 49.69)" xlink:href="#linear-gradient"/><linearGradient id="linear-gradient-166" x1="5.19" y1="5.43" x2="10.91" y2="5.43" gradientTransform="matrix(0.88, 0.48, -0.48, 0.88, 51.81, 49.69)" xlink:href="#linear-gradient"/><linearGradient id="linear-gradient-167" x1="5.42" y1="1.61" x2="12.02" y2="1.61" gradientTransform="matrix(0.88, 0.48, -0.48, 0.88, 51.81, 49.69)" xlink:href="#linear-gradient"/><linearGradient id="linear-gradient-168" x1="5.93" y1="-2.18" x2="13.37" y2="-2.18" gradientTransform="matrix(0.88, 0.48, -0.48, 0.88, 51.81, 49.69)" xlink:href="#linear-gradient"/><linearGradient id="linear-gradient-169" x1="6.71" y1="-5.93" x2="14.94" y2="-5.93" gradientTransform="matrix(0.88, 0.48, -0.48, 0.88, 51.81, 49.69)" xlink:href="#linear-gradient"/><linearGradient id="linear-gradient-170" x1="7.81" y1="-9.62" x2="16.7" y2="-9.62" gradientTransform="matrix(0.88, 0.48, -0.48, 0.88, 51.81, 49.69)" xlink:href="#linear-gradient"/><linearGradient id="linear-gradient-171" x1="9.21" y1="-13.24" x2="18.68" y2="-13.24" gradientTransform="matrix(0.88, 0.48, -0.48, 0.88, 51.81, 49.69)" xlink:href="#linear-gradient"/><linearGradient id="linear-gradient-172" x1="10.89" y1="-16.77" x2="20.85" y2="-16.77" gradientTransform="matrix(0.88, 0.48, -0.48, 0.88, 51.81, 49.69)" xlink:href="#linear-gradient"/><linearGradient id="linear-gradient-173" x1="12.88" y1="-20.18" x2="23.2" y2="-20.18" gradientTransform="matrix(0.88, 0.48, -0.48, 0.88, 51.81, 49.69)" xlink:href="#linear-gradient"/><linearGradient id="linear-gradient-174" x1="15.16" y1="-23.47" x2="25.73" y2="-23.47" gradientTransform="matrix(0.88, 0.48, -0.48, 0.88, 51.81, 49.69)" xlink:href="#linear-gradient"/><linearGradient id="linear-gradient-175" x1="17.73" y1="-26.63" x2="28.43" y2="-26.63" gradientTransform="matrix(0.88, 0.48, -0.48, 0.88, 51.81, 49.69)" xlink:href="#linear-gradient"/><linearGradient id="linear-gradient-176" x1="27.62" y1="-48.31" x2="103.54" y2="-48.31" gradientTransform="matrix(0.88, 0.48, -0.48, 0.88, 51.81, 49.69)" xlink:href="#linear-gradient"/><linearGradient id="linear-gradient-177" x1="63.08" y1="-23.85" x2="103.35" y2="-23.85" gradientTransform="matrix(0.88, 0.48, -0.48, 0.88, 51.81, 49.69)" xlink:href="#linear-gradient"/><linearGradient id="linear-gradient-178" x1="38.63" y1="-26.69" x2="65.57" y2="-26.69" gradientTransform="matrix(0.88, 0.48, -0.48, 0.88, 51.81, 49.69)" xlink:href="#linear-gradient"/><linearGradient id="linear-gradient-179" x1="103.84" y1="3.4" x2="119.2" y2="3.4" gradientTransform="matrix(0.88, 0.48, -0.48, 0.88, 51.81, 49.69)" xlink:href="#linear-gradient"/><linearGradient id="linear-gradient-180" x1="109.63" y1="-29.99" x2="127.47" y2="-29.99" gradientTransform="matrix(0.88, 0.48, -0.48, 0.88, 51.81, 49.69)" xlink:href="#linear-gradient"/><linearGradient id="linear-gradient-181" x1="76.09" y1="-50.49" x2="100.03" y2="-50.49" gradientTransform="matrix(0.88, 0.48, -0.48, 0.88, 51.81, 49.69)" xlink:href="#linear-gradient"/><linearGradient id="linear-gradient-182" x1="127.16" y1="-8.74" x2="140.03" y2="-8.74" gradientTransform="matrix(0.88, 0.48, -0.48, 0.88, 51.81, 49.69)" xlink:href="#linear-gradient"/><linearGradient id="linear-gradient-183" x1="129.41" y1="0.1" x2="143.9" y2="0.1" gradientTransform="matrix(0.88, 0.48, -0.48, 0.88, 51.81, 49.69)" xlink:href="#linear-gradient"/><linearGradient id="linear-gradient-184" x1="30.88" y1="-34.92" x2="38.91" y2="-34.92" gradientTransform="matrix(0.88, 0.48, -0.48, 0.88, 51.81, 49.69)" xlink:href="#linear-gradient"/><linearGradient id="linear-gradient-185" x1="35.01" y1="-36.81" x2="42.28" y2="-36.81" gradientTransform="matrix(0.88, 0.48, -0.48, 0.88, 51.81, 49.69)" xlink:href="#linear-gradient"/><linearGradient id="linear-gradient-186" x1="39.28" y1="-38.44" x2="45.73" y2="-38.44" gradientTransform="matrix(0.88, 0.48, -0.48, 0.88, 51.81, 49.69)" xlink:href="#linear-gradient"/><linearGradient id="linear-gradient-187" x1="43.66" y1="-39.81" x2="49.28" y2="-39.81" gradientTransform="matrix(0.88, 0.48, -0.48, 0.88, 51.81, 49.69)" xlink:href="#linear-gradient"/><linearGradient id="linear-gradient-188" x1="48.13" y1="-40.91" x2="52.89" y2="-40.91" gradientTransform="matrix(0.88, 0.48, -0.48, 0.88, 51.81, 49.69)" xlink:href="#linear-gradient"/><linearGradient id="linear-gradient-189" x1="52.68" y1="-41.75" x2="56.56" y2="-41.75" gradientTransform="matrix(0.88, 0.48, -0.48, 0.88, 51.81, 49.69)" xlink:href="#linear-gradient"/><linearGradient id="linear-gradient-190" x1="57.28" y1="-42.31" x2="60.27" y2="-42.31" gradientTransform="matrix(0.88, 0.48, -0.48, 0.88, 51.81, 49.69)" xlink:href="#linear-gradient"/><linearGradient id="linear-gradient-191" x1="61.92" y1="-42.6" x2="64.01" y2="-42.6" gradientTransform="matrix(0.88, 0.48, -0.48, 0.88, 51.81, 49.69)" xlink:href="#linear-gradient"/><linearGradient id="linear-gradient-192" x1="66.36" y1="-42.62" x2="68.3" y2="-42.62" gradientTransform="matrix(0.88, 0.48, -0.48, 0.88, 51.81, 49.69)" xlink:href="#linear-gradient"/><linearGradient id="linear-gradient-193" x1="70.09" y1="-42.38" x2="72.94" y2="-42.38" gradientTransform="matrix(0.88, 0.48, -0.48, 0.88, 51.81, 49.69)" xlink:href="#linear-gradient"/><linearGradient id="linear-gradient-194" x1="73.81" y1="-41.86" x2="77.54" y2="-41.86" gradientTransform="matrix(0.88, 0.48, -0.48, 0.88, 51.81, 49.69)" xlink:href="#linear-gradient"/><linearGradient id="linear-gradient-195" x1="77.49" y1="-41.07" x2="82.1" y2="-41.07" gradientTransform="matrix(0.88, 0.48, -0.48, 0.88, 51.81, 49.69)" xlink:href="#linear-gradient"/><linearGradient id="linear-gradient-196" x1="81.11" y1="-40.01" x2="86.6" y2="-40.01" gradientTransform="matrix(0.88, 0.48, -0.48, 0.88, 51.81, 49.69)" xlink:href="#linear-gradient"/><linearGradient id="linear-gradient-197" x1="84.67" y1="-38.67" x2="90.99" y2="-38.67" gradientTransform="matrix(0.88, 0.48, -0.48, 0.88, 51.81, 49.69)" xlink:href="#linear-gradient"/><linearGradient id="linear-gradient-198" x1="88.14" y1="-37.08" x2="95.27" y2="-37.08" gradientTransform="matrix(0.88, 0.48, -0.48, 0.88, 51.81, 49.69)" xlink:href="#linear-gradient"/><linearGradient id="linear-gradient-199" x1="91.51" y1="-35.24" x2="99.43" y2="-35.24" gradientTransform="matrix(0.88, 0.48, -0.48, 0.88, 51.81, 49.69)" xlink:href="#linear-gradient"/><linearGradient id="linear-gradient-200" x1="94.78" y1="-33.15" x2="103.43" y2="-33.15" gradientTransform="matrix(0.88, 0.48, -0.48, 0.88, 51.81, 49.69)" xlink:href="#linear-gradient"/><linearGradient id="linear-gradient-201" x1="105.18" y1="-20.84" x2="110.3" y2="-20.84" gradientTransform="matrix(0.88, 0.48, -0.48, 0.88, 51.81, 49.69)" xlink:href="#linear-gradient"/><linearGradient id="linear-gradient-202" x1="107.71" y1="-18.36" x2="113.7" y2="-18.36" gradientTransform="matrix(0.88, 0.48, -0.48, 0.88, 51.81, 49.69)" xlink:href="#linear-gradient"/><linearGradient id="linear-gradient-203" x1="110.06" y1="-15.67" x2="116.99" y2="-15.67" gradientTransform="matrix(0.88, 0.48, -0.48, 0.88, 51.81, 49.69)" xlink:href="#linear-gradient"/><linearGradient id="linear-gradient-204" x1="112.24" y1="-12.77" x2="120.12" y2="-12.77" gradientTransform="matrix(0.88, 0.48, -0.48, 0.88, 51.81, 49.69)" xlink:href="#linear-gradient"/><linearGradient id="linear-gradient-205" x1="114.22" y1="-9.7" x2="123.11" y2="-9.7" gradientTransform="matrix(0.88, 0.48, -0.48, 0.88, 51.81, 49.69)" xlink:href="#linear-gradient"/><linearGradient id="linear-gradient-206" x1="115.99" y1="-6.44" x2="125.91" y2="-6.44" gradientTransform="matrix(0.88, 0.48, -0.48, 0.88, 51.81, 49.69)" xlink:href="#linear-gradient"/><linearGradient id="linear-gradient-207" x1="117.56" y1="-3.01" x2="128.5" y2="-3.01" gradientTransform="matrix(0.88, 0.48, -0.48, 0.88, 51.81, 49.69)" xlink:href="#linear-gradient"/><linearGradient id="linear-gradient-208" x1="118.92" y1="0.57" x2="130.89" y2="0.57" gradientTransform="matrix(0.88, 0.48, -0.48, 0.88, 51.81, 49.69)" xlink:href="#linear-gradient"/><linearGradient id="linear-gradient-209" x1="120.04" y1="4.3" x2="133.06" y2="4.3" gradientTransform="matrix(0.88, 0.48, -0.48, 0.88, 51.81, 49.69)" xlink:href="#linear-gradient"/><linearGradient id="linear-gradient-210" x1="120.94" y1="8.16" x2="134.94" y2="8.16" gradientTransform="matrix(0.88, 0.48, -0.48, 0.88, 51.81, 49.69)" xlink:href="#linear-gradient"/></defs><g id="Layer_2" data-name="Layer 2"><g id="OBJECTS"><path class="cls-1" d="M145.72,179.28l.95-.55,1.14-.66,1.5-1,1.86-1.19c.67-.44,1.37-1,2.13-1.49,1.53-1.05,3.17-2.35,5-3.77a96.56,96.56,0,0,0,11.2-10.85A93,93,0,0,0,187.33,129a90.57,90.57,0,0,0,3.83-15.14c.22-1.12.32-2.21.46-3.24s.28-2,.35-2.94c.13-1.85.29-3.47.34-4.8.06-2.66.1-4.18.1-4.18h3.44s0,1.58-.1,4.34c-.05,1.38-.21,3-.35,5-.07,1-.23,2-.36,3s-.26,2.21-.48,3.37a93.54,93.54,0,0,1-4,15.71,96,96,0,0,1-18.53,31.93,97.93,97.93,0,0,1-11.61,11.25c-1.85,1.48-3.56,2.82-5.15,3.91-.78.56-1.51,1.09-2.21,1.55L151.16,180l-1.56,1-1.18.69-1,.57Z"/><path class="cls-2" d="M116.53,161.35l2.21-.62,2.5-.85c1-.31,2-.78,3.2-1.22a65.89,65.89,0,0,0,15.79-9.41,68.42,68.42,0,0,0,7.19-6.75c.53-.58,1-1.18,1.53-1.74.24-.29.5-.57.73-.86l.68-.86c.44-.57.89-1.11,1.29-1.66l1.14-1.6a59.51,59.51,0,0,0,3.23-5.14c.37-.63.66-1.13.83-1.49l.27-.53,3.06,1.59-.29.56c-.18.38-.48.9-.87,1.57a62.63,62.63,0,0,1-3.41,5.41c-.38.54-.78,1.11-1.2,1.69s-.89,1.14-1.36,1.74l-.71.91c-.24.3-.51.6-.77.9-.53.6-1,1.23-1.61,1.84a73.53,73.53,0,0,1-7.56,7.1,69.31,69.31,0,0,1-16.63,9.9c-1.24.47-2.35,1-3.37,1.3l-2.64.89-2.34.66Z"/><path class="cls-3" d="M152.72,129.51l.69-1.2c.24-.37.45-.87.74-1.41s.62-1.15.93-1.84a61.16,61.16,0,0,0,5.69-21.29c0-.76.13-1.45.15-2.06s0-1.16,0-1.6c0-.89,0-1.4,0-1.4h6.87l0,1.55c0,.49,0,1.09,0,1.77s-.11,1.46-.17,2.3A68,68,0,0,1,161.29,128c-.35.77-.73,1.44-1,2.05s-.56,1.15-.82,1.57l-.77,1.33Z"/><path class="cls-4" d="M67.09,154.92l.46.26c.29.17.72.44,1.28.73l2,1.05c.78.42,1.72.79,2.71,1.25.49.24,1,.45,1.57.66l1.7.67c.58.24,1.2.41,1.82.63s1.25.45,1.9.63c1.32.36,2.67.8,4.07,1.08.7.15,1.4.35,2.12.48l2.15.38a66.22,66.22,0,0,0,16,.63c1.09-.05,2.09-.2,3-.31s1.65-.2,2.28-.33l2-.35.67,3.37-2.08.37c-.66.14-1.47.23-2.4.35s-2,.27-3.13.33a69.72,69.72,0,0,1-16.87-.66l-2.27-.41c-.75-.13-1.48-.33-2.22-.49-1.48-.3-2.9-.76-4.29-1.14-.69-.19-1.35-.45-2-.66s-1.31-.42-1.92-.67l-1.78-.71c-.58-.22-1.14-.44-1.66-.69-1-.49-2-.88-2.85-1.32l-2.16-1.11c-.59-.31-1-.59-1.35-.76l-.48-.28Z"/><path class="cls-5" d="M107.63,191.23l1.23-.1,3.24-.4c1.34-.15,2.9-.44,4.56-.74s3.41-.71,5.17-1.11,3.48-.95,5.11-1.4,3.09-1,4.37-1.47l4.2-1.65,1.33,3.18-4.35,1.7c-1.33.45-2.87,1-4.54,1.53s-3.47,1-5.29,1.45-3.64.88-5.37,1.16-3.33.61-4.73.76-2.54.33-3.36.42l-1.27.1Z"/><path class="cls-6" d="M151.33,175.88s.38-.25,1-.71l2.66-1.9c1.07-.81,2.3-1.8,3.63-2.84s2.66-2.25,4-3.49,2.63-2.46,3.77-3.7l1.68-1.77c.53-.56,1-1.12,1.44-1.63,1.8-2,2.88-3.46,2.88-3.46l5.36,4.24-.83,1c-.51.67-1.32,1.56-2.26,2.67-.48.54-1,1.15-1.55,1.75s-1.17,1.24-1.8,1.89c-1.23,1.33-2.65,2.64-4.05,4s-2.9,2.55-4.26,3.74-2.75,2.18-3.9,3.05l-2.86,2c-.68.49-1.09.76-1.09.76Z"/><path class="cls-7" d="M74.86,188.31l1.19.34c.76.2,1.86.44,3.18.75s2.87.6,4.53.89,3.46.52,5.24.75c.9.13,1.79.19,2.68.26l2.59.19c1.69.1,3.26.11,4.61.15s2.47,0,3.25,0l1.24,0,.21,5.06-1.31,0c-.82,0-2,.08-3.43.05s-3.08-.05-4.85-.15l-2.74-.2c-.93-.07-1.87-.14-2.82-.27-1.88-.25-3.77-.45-5.52-.79s-3.39-.6-4.78-.94-2.55-.58-3.35-.79l-1.26-.36Z"/><path class="cls-8" d="M51.36,182.12l2,1.16c.65.36,1.46.76,2.38,1.24s2,1,3.13,1.53a94.77,94.77,0,0,0,17.64,6.21A99.44,99.44,0,0,0,95,194.93c2.54.06,4.66.15,6.14.07l2.34-.06.14,3.44-2.42.07c-1.53.07-3.73,0-6.36-.08a102.14,102.14,0,0,1-19.15-2.77,97.7,97.7,0,0,1-18.28-6.43c-1.21-.52-2.28-1.1-3.24-1.58s-1.79-.91-2.47-1.28l-2.1-1.21Z"/><polygon class="cls-9" points="171.73 101.38 171.78 99.6 189.46 99.82 189.4 102.02 171.73 101.38"/><polygon class="cls-10" points="171.43 106.13 171.56 104.36 189.19 105.72 189.01 107.92 171.43 106.13"/><path class="cls-11" d="M170.77,110.84l.16-.87c0-.22.07-.44.09-.6s0-.28,0-.28l17.5,2.52-.05.34a6.18,6.18,0,0,1-.11.75c-.09.55-.19,1.09-.19,1.09Z"/><polygon class="cls-12" points="169.82 115.5 170.22 113.78 187.52 117.44 187.02 119.59 169.82 115.5"/><polygon class="cls-13" points="168.59 120.09 169.07 118.39 186.09 123.19 185.48 125.32 168.59 120.09"/><path class="cls-14" d="M167,124.58s.16-.41.33-.82.29-.84.29-.84l16.65,5.92s-.16.53-.36,1-.41,1-.41,1Z"/><polygon class="cls-15" points="165.17 128.96 165.9 127.34 182.13 134.35 181.22 136.37 165.17 128.96"/><polygon class="cls-16" points="163.05 133.22 163.86 131.64 179.59 139.71 178.58 141.67 163.05 133.22"/><path class="cls-17" d="M160.62,137.31l.48-.75c.25-.37.46-.76.46-.76l15.17,9.09s-.27.48-.58.94-.59.93-.59.93Z"/><polygon class="cls-18" points="157.95 141.25 158.98 139.8 173.51 149.86 172.23 151.66 157.95 141.25"/><path class="cls-19" d="M155,145s.29-.33.56-.69.55-.69.55-.69l13.84,11-.68.87c-.33.44-.7.85-.7.85Z"/><polygon class="cls-20" points="151.85 148.54 153.07 147.26 166.17 159.13 164.65 160.74 151.85 148.54"/><polygon class="cls-21" points="148.46 151.89 149.75 150.66 162.04 163.37 160.44 164.89 148.46 151.89"/><path class="cls-22" d="M144.85,155l.7-.55.67-.58,11.43,13.49-.83.72-.87.68Z"/><polygon class="cls-23" points="141.05 157.85 142.5 156.82 153.02 171.03 151.22 172.31 141.05 157.85"/><polygon class="cls-24" points="137.08 160.48 138.57 159.52 148.14 174.38 146.28 175.57 137.08 160.48"/><path class="cls-25" d="M132.93,162.8l.79-.4.54-.29.24-.14,8.57,15.46-.3.17c-.18.11-.42.24-.67.37l-1,.5Z"/><path class="cls-26" d="M116.9,168.88l.33-.08a7.38,7.38,0,0,0,.74-.19l1.07-.31,1.85,6.64-1.17.33c-.29.09-.58.16-.8.21l-.38.08Z"/><path class="cls-27" d="M112.35,169.83l1.09-.19c.55-.09,1.09-.22,1.09-.22l1.67,7.91s-.6.15-1.21.25l-1.21.21Z"/><polygon class="cls-28" points="107.75 170.51 109.96 170.23 111.28 179.42 108.8 179.74 107.75 170.51"/><path class="cls-29" d="M103.12,170.9l.34,0,.77-.06,1.1-.08.83,10.45-1.26.09-.87.07-.4,0Z"/><path class="cls-30" d="M98.46,171l1.11,0,1.12,0,.18,11.68-1.29,0-1.29,0Z"/><path class="cls-31" d="M93.81,170.74l1.11.09.76.06a2.33,2.33,0,0,0,.35,0l-.61,12.87-.41,0-.9-.06-1.3-.1Z"/><polygon class="cls-32" points="89.19 170.24 91.39 170.52 89.83 184.52 87.2 184.18 89.19 170.24"/><path class="cls-33" d="M84.61,169.44l.34.08.75.14,1.09.19-2.67,15-1.32-.23-.91-.17-.41-.09Z"/><path class="cls-34" d="M80.11,168.33l1.06.31c.27.08.54.13.74.18l.34.08-3.92,16-.42-.09c-.25-.06-.58-.13-.91-.23l-1.31-.37Z"/><polygon class="cls-35" points="75.67 166.94 77.78 167.66 72.46 184.52 69.84 183.63 75.67 166.94"/><path class="cls-36" d="M6.65,98.43s0,.09,0,.28,0,.45,0,.81c0,.71,0,1.76.08,3.09s.19,2.94.32,4.79c.05.93.21,1.91.33,2.94s.24,2.13.45,3.25a92.9,92.9,0,0,0,21.56,46,97,97,0,0,0,11.16,10.89c1.8,1.41,3.42,2.73,5,3.78l2.12,1.5L49.5,177c1.12.72,2,1.29,2.63,1.63l.95.55-1.72,3-1-.57c-.65-.35-1.56-.94-2.73-1.69l-1.92-1.24-2.21-1.56c-1.59-1.08-3.27-2.46-5.14-3.92A100.8,100.8,0,0,1,26.8,161.85a96.32,96.32,0,0,1-18.43-32,95.1,95.1,0,0,1-3.93-15.72c-.22-1.17-.32-2.3-.47-3.37s-.28-2.09-.34-3c-.13-1.92-.31-3.59-.33-5s-.06-2.46-.08-3.2c0-.37,0-.65,0-.84s0-.29,0-.29Z"/><path class="cls-37" d="M36.77,82.09s-.06.2-.15.59-.22.94-.38,1.65c-.08.36-.18.75-.28,1.18s-.16.91-.25,1.41l-.29,1.6c-.1.56-.15,1.17-.24,1.79a68.17,68.17,0,0,0-.55,8.59,72.81,72.81,0,0,0,.76,9.84,73,73,0,0,0,2.24,9.56c.51,1.49,1,2.94,1.53,4.26s1.1,2.58,1.6,3.73,1.09,2.15,1.54,3.06,1,1.66,1.31,2.3.67,1.13.88,1.46l.33.5-2.9,1.86-.35-.53c-.22-.35-.56-.86-.93-1.54s-.87-1.47-1.37-2.42-1.08-2-1.62-3.23-1.17-2.5-1.69-3.92-1.07-2.92-1.61-4.49A73.86,73.86,0,0,1,32,109.26a77.29,77.29,0,0,1-.81-10.35,69.14,69.14,0,0,1,.59-9c.09-.66.14-1.29.25-1.88s.21-1.16.31-1.69.17-1,.26-1.48.2-.87.29-1.25c.17-.75.31-1.34.4-1.74a4.32,4.32,0,0,1,.17-.61Z"/><path class="cls-38" d="M46.24,129.35l.68,1.2.87,1.34c.34.51.68,1.12,1.14,1.72a60.74,60.74,0,0,0,15.62,15.65c.6.45,1.2.81,1.72,1.14l1.33.86,1.21.69-3.44,6L64,157.13l-1.49-1c-.57-.37-1.24-.76-1.91-1.27a66.32,66.32,0,0,1-9.47-7.9,67.58,67.58,0,0,1-7.89-9.48c-.5-.67-.89-1.34-1.26-1.91l-1-1.49-.77-1.34Z"/><path class="cls-39" d="M67.09,42.5l-.45.27c-.3.17-.74.4-1.27.76l-1.94,1.24c-.74.5-1.55,1.1-2.44,1.72A65,65,0,0,0,40.8,71.06c-.44,1-.88,1.9-1.22,2.73s-.6,1.54-.84,2.14-.38,1.07-.49,1.39l-.17.5-3.26-1.11s.06-.19.18-.53.25-.84.52-1.46.54-1.39.89-2.26.81-1.81,1.27-2.87a69.45,69.45,0,0,1,9-14.24A70.33,70.33,0,0,1,58.94,43.73c.94-.66,1.79-1.29,2.57-1.82s1.48-.94,2-1.31,1-.62,1.34-.8l.48-.28Z"/><path class="cls-40" d="M15.34,59.47s-.19.41-.51,1.13-.82,1.73-1.3,3A89.36,89.36,0,0,0,10.29,73c-.25.87-.49,1.74-.73,2.59s-.4,1.71-.59,2.54c-.41,1.64-.68,3.19-.91,4.52-.12.67-.23,1.28-.32,1.82s-.14,1-.19,1.41c-.1.78-.16,1.22-.16,1.22L4,86.64s.07-.47.17-1.28c.05-.4.11-.9.19-1.46s.21-1.19.34-1.88c.24-1.38.52-3,.94-4.69l.61-2.64c.25-.88.5-1.78.76-2.68a92,92,0,0,1,3.36-9.71c.5-1.32,1-2.36,1.35-3.11s.53-1.17.53-1.17Z"/><path class="cls-41" d="M6.82,105s0,.45.09,1.24.12,1.91.31,3.25a89.75,89.75,0,0,0,1.67,9.76c.2.88.4,1.76.6,2.62s.48,1.7.71,2.51.44,1.61.69,2.34.48,1.43.69,2.07l.6,1.75c.18.52.37,1,.51,1.33.29.73.45,1.15.45,1.15l-6.35,2.52s-.17-.45-.49-1.24c-.15-.39-.34-.87-.54-1.42s-.41-1.19-.64-1.88-.49-1.43-.75-2.22-.48-1.64-.74-2.51-.5-1.78-.76-2.7-.43-1.87-.65-2.81A96,96,0,0,1,.44,110.24C.23,108.8.17,107.6.1,106.75s-.1-1.32-.1-1.32Z"/><path class="cls-42" d="M34.27,32.55l-.23.23c-.16.14-.37.36-.64.65l-2.26,2.36c-.92,1-1.93,2.2-3,3.47S25.92,42,24.83,43.41a97.29,97.29,0,0,0-5.45,8.27l-1.62,2.83-.57,1.1-4.48-2.34.6-1.17,1.71-3a102.22,102.22,0,0,1,5.75-8.71c1.15-1.51,2.32-3,3.45-4.38s2.23-2.62,3.2-3.66l2.38-2.49c.28-.3.51-.53.67-.68l.25-.24Z"/><path class="cls-43" d="M51.36,15.31s-.75.41-2,1.18l-2.27,1.44-1.38.9-1.5,1.05A96.75,96.75,0,0,0,18.47,46.69c-1.41,2.13-2.43,4-3.18,5.29-.37.64-.64,1.16-.82,1.52l-.28.54-3-1.6.29-.56c.18-.37.46-.91.85-1.57.78-1.34,1.83-3.28,3.29-5.48A100.41,100.41,0,0,1,42.21,17.07L43.76,16l1.44-.92,2.34-1.5c1.32-.8,2.09-1.22,2.09-1.22Z"/><path class="cls-44" d="M61.12,159.93l.74.48c.38.24.77.45.77.45l-9,15.19s-.49-.26-1-.56l-.93-.6Z"/><polygon class="cls-45" points="57.17 157.27 58.62 158.3 48.6 172.86 46.8 171.58 57.17 157.27"/><path class="cls-46" d="M53.41,154.36a2.36,2.36,0,0,0,.21.18l.48.38.7.54-11,13.88-.86-.68-.6-.47c-.16-.13-.26-.23-.26-.23Z"/><path class="cls-47" d="M49.85,151.19l.65.61.44.43a2.36,2.36,0,0,1,.21.18L39.31,165.54l-.26-.23-.55-.52-.8-.76Z"/><polygon class="cls-48" points="46.5 147.81 47.73 149.1 35.06 161.42 33.53 159.82 46.5 147.81"/><path class="cls-49" d="M43.38,144.22s.07.08.17.22.24.3.39.47l.58.67L31.07,157.05l-.72-.84c-.18-.2-.35-.42-.48-.58l-.21-.28Z"/><polygon class="cls-50" points="40.51 140.42 41.54 141.87 27.37 152.43 26.09 150.63 40.51 140.42"/><polygon class="cls-51" points="37.88 136.46 38.84 137.95 24 147.56 22.81 145.7 37.88 136.46"/><path class="cls-52" d="M35.54,132.32l.4.79.44.77L21,142.49l-.55-1-.51-1Z"/><polygon class="cls-53" points="33.47 128.04 34.19 129.65 18.22 137.23 17.31 135.22 33.47 128.04"/><polygon class="cls-54" points="31.66 123.64 32.31 125.29 15.88 131.79 15.07 129.74 31.66 123.64"/><path class="cls-55" d="M30.19,119.12l.24.85a5.89,5.89,0,0,0,.18.58c.06.16.09.27.09.27l-16.83,5.4-.11-.33c-.07-.2-.16-.46-.23-.72l-.3-1.07Z"/><polygon class="cls-56" points="29 114.52 29.4 116.25 12.25 120.52 11.75 118.36 29 114.52"/><polygon class="cls-57" points="28.1 109.85 28.42 111.59 11.02 114.72 10.63 112.55 28.1 109.85"/><path class="cls-58" d="M27.55,105.12l.06.89c.06.44.11.88.11.88l-17.57,2s-.06-.55-.13-1.1l-.08-1.1Z"/><polygon class="cls-59" points="27.29 100.37 27.33 102.14 9.68 102.97 9.62 100.76 27.29 100.37"/><polygon class="cls-60" points="27.33 95.6 27.28 97.38 9.61 97.06 9.66 94.85 27.33 95.6"/><path class="cls-61" d="M30.08,78.67l-.3,1.06c-.07.27-.15.53-.21.74s-.09.33-.09.33l-6.67-1.7s0-.15.1-.37.14-.51.23-.8c.16-.59.33-1.17.33-1.17Z"/><polygon class="cls-62" points="31.5 74.24 30.79 76.34 23.1 73.84 23.89 71.51 31.5 74.24"/><path class="cls-63" d="M33.22,69.93l-.14.31c-.09.19-.2.45-.3.71l-.41,1-8.62-3.44.46-1.16c.11-.3.23-.58.33-.8l.17-.35Z"/><path class="cls-64" d="M35.22,65.73l-.51,1-.35.68-.14.32-9.47-4.51.17-.36c.1-.21.25-.49.39-.78l.58-1.13Z"/><polygon class="cls-65" points="37.46 61.67 36.36 63.59 26.15 57.9 27.44 55.67 37.46 61.67"/><path class="cls-66" d="M40,57.76l-.2.28c-.13.17-.28.4-.43.63l-.6.94-10.82-7,.7-1.1c.18-.28.36-.55.5-.75l.24-.33Z"/><path class="cls-67" d="M42.74,54l-.68.87-.47.6-.2.29L30.07,47.4l.24-.34.56-.71.82-1Z"/><polygon class="cls-68" points="45.73 50.45 44.28 52.13 32.6 42.28 34.36 40.25 45.73 50.45"/><path class="cls-69" d="M49,47.1l-.25.24a5.48,5.48,0,0,0-.54.54l-.77.8L35.5,37.27l1-1c.23-.25.47-.49.66-.67l.3-.29Z"/><path class="cls-70" d="M52.38,44l-.84.72-.58.5-.25.24-12-13,.32-.3.71-.62,1.05-.9Z"/><path class="cls-71" d="M146.22,18.43l-.95-.55c-.62-.35-1.52-.89-2.72-1.48s-2.61-1.38-4.32-2.12c-.85-.38-1.75-.8-2.7-1.21l-3.06-1.21a94.67,94.67,0,0,0-15-4.28,92.81,92.81,0,0,0-35.57-.06,95,95,0,0,0-15,4.24L63.79,13c-1,.39-1.86.82-2.71,1.19-1.71.74-3.14,1.5-4.33,2.11l-1.58.82L54,17.74l-1,.55-1.72-3,1-.57,1.19-.68,1.64-.85c1.23-.63,2.71-1.41,4.48-2.18.89-.39,1.81-.84,2.81-1.24l3.17-1.25a96.45,96.45,0,0,1,34-6.15A96.1,96.1,0,0,1,118.11,4.2a98.09,98.09,0,0,1,15.58,4.44l3.17,1.26c1,.43,1.92.86,2.81,1.25,1.76.77,3.24,1.58,4.48,2.2s2.17,1.17,2.82,1.54l1,.56Z"/><path class="cls-72" d="M145.27,52.68l-1.67-1.59c-.51-.53-1.22-1.07-2-1.76S139.93,48,139,47.17c-.49-.4-1-.78-1.58-1.17s-1.12-.81-1.72-1.21c-1.22-.76-2.47-1.63-3.85-2.38s-2.82-1.51-4.28-2.27l-2.27-1c-.76-.36-1.55-.62-2.33-.95A64.43,64.43,0,0,0,105,34.06l-1.8-.14c-.57-.05-1.12,0-1.63-.05-1,0-1.93-.09-2.66,0l-2.31.05-.16-3.44,2.44-.06c.77-.05,1.71,0,2.79,0,.54,0,1.12,0,1.72.06l1.9.15A67.68,67.68,0,0,1,124.17,35c.81.34,1.65.62,2.45,1s1.59.73,2.39,1.08c1.54.8,3.08,1.54,4.5,2.4s2.78,1.69,4.06,2.5c.63.43,1.22.87,1.81,1.28s1.15.8,1.66,1.23c1,.82,2,1.54,2.81,2.27s1.55,1.3,2.09,1.85l1.76,1.68Z"/><path class="cls-73" d="M99.62,37.24a2.45,2.45,0,0,0-.36,0l-1,0-1.6,0c-.62,0-1.31.1-2.07.15a61,61,0,0,0-21.3,5.66c-.69.3-1.29.66-1.84.92s-1,.51-1.41.74l-1.2.69-3.44-5.95,1.33-.77c.42-.25,1-.5,1.57-.81s1.28-.69,2-1A67.78,67.78,0,0,1,94,30.61c.84-.06,1.6-.14,2.29-.16l1.77,0,1.15,0c.26,0,.4,0,.4,0Z"/><path class="cls-74" d="M164.43,98.71s0-.73-.06-2c0-.64,0-1.42-.1-2.31s-.11-1.89-.26-3a65.59,65.59,0,0,0-3.73-15.54c-.26-.68-.53-1.36-.8-2s-.59-1.32-.87-2c-.56-1.33-1.25-2.56-1.86-3.78-.31-.61-.67-1.18-1-1.76s-.63-1.14-1-1.66c-.7-1-1.28-2.08-1.95-2.95-1.23-1.81-2.4-3.21-3.18-4.23L148.33,56l2.59-2.27,1.39,1.6c.82,1.07,2.05,2.55,3.35,4.45.7.92,1.31,2,2.05,3.11.37.55.67,1.16,1,1.75s.72,1.21,1,1.85c.64,1.28,1.37,2.59,2,4,.3.69.65,1.37.92,2.09l.85,2.13A69.38,69.38,0,0,1,167.43,91c.16,1.14.18,2.2.27,3.14s.1,1.75.12,2.43c0,1.34.05,2.11.05,2.11Z"/><path class="cls-75" d="M175.58,45.42l-.72-1L174,43.26c-.33-.44-.72-.93-1.13-1.46-.83-1.06-1.79-2.31-2.92-3.57l-1.7-2c-.62-.64-1.24-1.3-1.86-2a93.46,93.46,0,0,0-7.22-6.76c-1-.89-1.92-1.55-2.54-2l-1-.77L157.79,22l1,.79c.63.52,1.57,1.2,2.63,2.13a99.76,99.76,0,0,1,7.49,7l1.91,2c.61.69,1.2,1.38,1.77,2,1.17,1.3,2.16,2.6,3,3.7.43.55.83,1.05,1.17,1.51l.86,1.2.74,1Z"/><path class="cls-76" d="M140.46,15.27l-.28-.14c-.19-.1-.47-.24-.83-.4l-3-1.35c-1.23-.55-2.71-1.09-4.28-1.72s-3.3-1.15-5-1.73-3.46-1-5.11-1.41-3.18-.77-4.51-1L114.25,7l-.91-.15-.32,0L114,0l.35.05c.23,0,.55.07,1,.15l3.46.61c1.42.26,3.07.68,4.84,1.08s3.62,1,5.48,1.52,3.68,1.2,5.38,1.85,3.28,1.25,4.6,1.85l3.2,1.45c.39.17.69.32.89.42l.31.16Z"/><path class="cls-77" d="M189.48,75.28s-.5-1.73-1.24-4.33c-.44-1.28-.93-2.78-1.49-4.38s-1.24-3.26-2-4.91-1.46-3.3-2.25-4.79c-.39-.75-.76-1.48-1.12-2.16s-.74-1.32-1.07-1.9C179,50.44,178,49,178,49l4.27-2.71.7,1.1c.46.69,1,1.73,1.75,3,.35.62.75,1.29,1.13,2L187,54.59c.84,1.58,1.6,3.32,2.38,5s1.43,3.53,2.09,5.19,1.12,3.26,1.58,4.61l1.3,4.57Z"/><path class="cls-78" d="M195.85,98.71s0-.85,0-2.33c0-.74-.05-1.64-.08-2.68s-.16-2.19-.26-3.46A97,97,0,0,0,192,71.87,95.31,95.31,0,0,0,185.1,54.5l-.84-1.63-.82-1.43-1.33-2.33c-.37-.65-.71-1.13-.92-1.47l-.33-.51,2.91-1.85.34.54c.22.35.56.85.94,1.51s.86,1.48,1.39,2.41l.85,1.49c.27.54.56,1.1.87,1.69a99.3,99.3,0,0,1,10.73,37c.1,1.31.19,2.52.27,3.59s.06,2,.08,2.77c0,1.54,0,2.41,0,2.41Z"/><path class="cls-79" d="M65.72,34.82s-.4.2-.78.41l-.77.45L55.5,20.27l1-.55c.49-.27,1-.51,1-.51Z"/><polygon class="cls-80" points="70 32.74 68.38 33.47 60.75 17.53 62.77 16.61 70 32.74"/><polygon class="cls-81" points="74.39 30.93 72.74 31.58 66.19 15.16 68.25 14.36 74.39 30.93"/><path class="cls-82" d="M78.9,29.44l-.85.24-.84.28L71.76,13.15l1-.36,1.06-.3Z"/><polygon class="cls-83" points="83.5 28.24 81.78 28.64 77.45 11.5 79.6 11 83.5 28.24"/><polygon class="cls-84" points="88.17 27.33 86.42 27.64 83.24 10.25 85.42 9.87 88.17 27.33"/><path class="cls-85" d="M92.89,26.75l-.88.07-.88.12-2-17.56,1.09-.14c.55-.06,1.1-.09,1.1-.09Z"/><polygon class="cls-86" points="97.65 26.48 95.87 26.53 94.99 8.87 97.2 8.81 97.65 26.48"/><polygon class="cls-87" points="102.42 26.51 100.64 26.46 100.9 8.79 103.11 8.85 102.42 26.51"/><path class="cls-88" d="M107.17,26.84l-.28,0-.61,0-.88-.07,1.41-17.62,1.1.09.76.06.34,0Z"/><path class="cls-89" d="M111.87,27.51l-.87-.16a8.72,8.72,0,0,0-.87-.13l2.56-17.49s.55.06,1.1.16l1.08.2Z"/><polygon class="cls-90" points="116.53 28.47 114.8 28.07 118.52 10.79 120.68 11.28 116.53 28.47"/><path class="cls-91" d="M121.12,29.71l-.85-.24-.86-.24,4.86-17,1.06.3,1.06.31Z"/><path class="cls-92" d="M125.6,31.3l-.83-.32c-.41-.18-.83-.31-.83-.31l6-16.64s.53.17,1,.38l1,.41Z"/><polygon class="cls-93" points="129.97 33.16 128.35 32.43 135.42 16.22 137.43 17.13 129.97 33.16"/><path class="cls-94" d="M134.22,35.3l-.24-.14-.54-.28-.79-.4,8.11-15.71,1,.51.67.35.3.17Z"/><path class="cls-95" d="M138.31,37.73l-.75-.47-.51-.34-.24-.14,9.13-15.13.3.17c.17.12.41.26.64.41l.93.6Z"/><path class="cls-96" d="M151.59,48.61l-.76-.8c-.19-.21-.4-.4-.55-.54L150,47l4.81-4.93.28.27c.16.16.39.36.59.58l.84.88Z"/><polygon class="cls-97" points="154.71 52.06 153.26 50.38 159.27 44.97 160.88 46.84 154.71 52.06"/><path class="cls-98" d="M157.61,55.7s-.08-.12-.21-.28-.3-.39-.47-.6l-.68-.88,7.28-5.75.77,1c.2.25.39.49.53.68l.23.31Z"/><path class="cls-99" d="M160.24,59.53l-.59-.94c-.15-.24-.31-.46-.43-.63l-.2-.28,8.62-6,.23.32c.14.19.32.45.49.72.34.54.69,1.07.69,1.07Z"/><polygon class="cls-100" points="162.64 63.51 161.54 61.58 171.56 55.57 172.84 57.8 162.64 63.51"/><path class="cls-101" d="M164.79,67.63s0-.13-.14-.32l-.36-.68-.5-1,11.45-5.91.59,1.17.41.8.18.37Z"/><path class="cls-102" d="M166.64,71.89s-.2-.52-.41-1a7.25,7.25,0,0,0-.3-.71l-.14-.31,12.91-5.63.16.38c.11.22.25.52.37.83l.48,1.24Z"/><polygon class="cls-103" points="168.23 76.25 167.52 74.15 181.89 68.96 182.75 71.51 168.23 76.25"/><polygon class="cls-104" points="169.54 80.7 168.94 78.57 184.76 73.99 185.51 76.61 169.54 80.7"/><path class="cls-105" d="M170.53,85.24s-.1-.54-.19-1.09-.25-1.08-.25-1.08l17.26-3.81s.15.68.31,1.35L187.9,82Z"/><g class="cls-106"><path class="cls-107" d="M101.17,172.36l.87,0,1,0,1.39-.1,1.74-.14c.62,0,1.3-.15,2-.23,1.46-.15,3.08-.44,4.85-.75a75.64,75.64,0,0,0,11.8-3.31,73.43,73.43,0,0,0,12.63-6.15,72,72,0,0,0,11.23-8.46,70.66,70.66,0,0,0,8.31-9c.57-.69,1.05-1.41,1.54-2.07s.94-1.29,1.33-1.9c.79-1.23,1.5-2.29,2-3.19l1.63-2.85,2.38,1.29-1.69,3c-.55.94-1.29,2-2.1,3.31-.41.63-.9,1.28-1.39,2s-1,1.43-1.59,2.15a73.62,73.62,0,0,1-8.62,9.37,75.75,75.75,0,0,1-24.75,15.14,78.58,78.58,0,0,1-12.23,3.44c-1.84.32-3.52.62-5,.78-.76.08-1.46.18-2.11.24l-1.8.13-1.44.11-1.07,0-.9,0Z"/><path class="cls-108" d="M87.7,149.05l1.76.4,2.05.35c.79.15,1.69.21,2.67.35a51.66,51.66,0,0,0,14.43-.6,55.07,55.07,0,0,0,7.49-2c.59-.21,1.15-.44,1.71-.64l.82-.32.79-.34c.52-.23,1-.44,1.52-.66l1.38-.68a47.26,47.26,0,0,0,4.16-2.35c.5-.3.88-.53,1.13-.72l.39-.27,1.52,2.25-.41.28c-.26.19-.67.44-1.19.76a49.49,49.49,0,0,1-4.38,2.46l-1.46.72c-.51.24-1,.46-1.59.7l-.83.36-.87.33c-.59.22-1.19.46-1.8.67a57.27,57.27,0,0,1-7.89,2.08,54.58,54.58,0,0,1-15.2.63c-1-.14-2-.21-2.81-.37l-2.16-.37-1.86-.41Z"/><path class="cls-109" d="M124.62,140.58l.93-.57c.3-.17.63-.43,1-.7s.85-.57,1.33-.93a49.07,49.07,0,0,0,6.52-5.74,48.3,48.3,0,0,0,5.37-6.85c.32-.5.63-1,.88-1.37l.62-1.09.55-1,4.75,2.57L146,126l-.69,1.21c-.28.46-.62,1-1,1.52a54.21,54.21,0,0,1-6,7.61,53,53,0,0,1-7.26,6.39c-.52.4-1,.72-1.48,1s-.81.59-1.15.78l-1,.63Z"/><path class="cls-110" d="M55.93,126.12l.22.35c.14.23.33.57.61,1l1,1.49c.38.58.89,1.18,1.4,1.88.25.34.54.69.84,1L61,133c.31.38.68.73,1,1.11s.7.78,1.09,1.15c.78.74,1.54,1.55,2.41,2.27.42.37.83.76,1.28,1.12l1.34,1.07a52.3,52.3,0,0,0,10.85,6.43c.78.37,1.52.64,2.17.89s1.22.48,1.7.63l1.49.49-.8,2.59-1.58-.53c-.5-.15-1.1-.39-1.78-.65s-1.47-.55-2.29-.95a54.41,54.41,0,0,1-11.41-6.76L65,140.7c-.47-.37-.9-.79-1.35-1.18-.91-.76-1.72-1.61-2.54-2.39-.41-.39-.76-.81-1.14-1.21s-.75-.77-1.08-1.17-.65-.79-1-1.16-.62-.73-.88-1.1c-.54-.73-1.07-1.36-1.48-2s-.78-1.13-1.08-1.57-.5-.8-.65-1l-.23-.36Z"/><path class="cls-111" d="M70.37,166.37l.89.4,2.39.93c1,.4,2.17.78,3.43,1.2s2.63.78,4,1.16,2.76.64,4.05.94,2.53.44,3.58.62l3.51.43-.26,2.7-3.65-.45c-1.08-.18-2.35-.39-3.71-.64s-2.78-.59-4.2-1-2.84-.75-4.14-1.2-2.53-.83-3.55-1.25-1.89-.72-2.48-1l-.92-.41Z"/><path class="cls-112" d="M106.32,172.11l1-.11,2.55-.32c1-.16,2.26-.38,3.57-.61s2.69-.56,4-.92,2.74-.72,4-1.15l1.83-.59c.57-.19,1.1-.41,1.6-.59,2-.73,3.28-1.32,3.28-1.32l2.12,4.94-1,.41c-.6.28-1.5.59-2.56,1-.54.2-1.11.43-1.73.63l-2,.64c-1.35.46-2.82.83-4.29,1.23s-3,.68-4.34,1-2.71.48-3.84.66l-2.73.34c-.66.08-1,.11-1,.11Z"/><path class="cls-113" d="M48.81,152.11s.26.24.7.68,1.12,1,1.92,1.7,1.76,1.49,2.8,2.32,2.19,1.64,3.34,2.47c.57.42,1.17.8,1.75,1.18l1.72,1.1c1.13.7,2.21,1.29,3.13,1.82s1.72.9,2.27,1.19l.87.44-1.75,3.57-.91-.46c-.58-.31-1.42-.7-2.4-1.25S60.15,165.68,59,165l-1.82-1.16c-.61-.4-1.24-.8-1.84-1.25-1.21-.87-2.45-1.71-3.53-2.61s-2.12-1.68-3-2.43-1.55-1.36-2-1.81l-.74-.71Z"/><path class="cls-114" d="M34.88,139l1,1.56c.32.49.73,1.07,1.18,1.75s1,1.44,1.59,2.23a74.51,74.51,0,0,0,9.88,10.88,77.26,77.26,0,0,0,11.78,8.76c1.73,1,3.17,1.85,4.22,2.35l1.64.83L65,169.83,63.26,169c-1.1-.52-2.58-1.4-4.38-2.43a80.89,80.89,0,0,1-12.2-9.07,77.5,77.5,0,0,1-10.23-11.28c-.64-.82-1.16-1.62-1.65-2.31s-.89-1.3-1.22-1.81l-1-1.62Z"/><polygon class="cls-115" points="148.28 128.24 148.98 127.03 161.12 133.79 160.26 135.29 148.28 128.24"/><polygon class="cls-116" points="146.29 131.41 147.05 130.24 158.72 137.77 157.78 139.23 146.29 131.41"/><path class="cls-117" d="M144.08,134.42l.43-.54c.12-.14.21-.28.29-.39l.13-.17,11.15,8.28-.16.22c-.09.13-.21.31-.35.48-.28.34-.54.68-.54.68Z"/><polygon class="cls-118" points="141.68 137.29 142.6 136.24 153.19 145.24 152.04 146.55 141.68 137.29"/><polygon class="cls-119" points="139.11 140 140.08 139 150.05 148.68 148.83 149.93 139.11 140"/><path class="cls-120" d="M136.35,142.51l.53-.44c.27-.23.52-.47.52-.47l9.3,10.32s-.31.3-.64.58l-.67.56Z"/><polygon class="cls-121" points="133.43 144.85 134.54 144.01 143.14 154.92 141.76 155.97 133.43 144.85"/><polygon class="cls-122" points="130.38 147 131.53 146.21 139.38 157.67 137.95 158.65 130.38 147"/><path class="cls-123" d="M127.17,148.92l.61-.34c.31-.16.6-.35.6-.35l7.09,12s-.37.24-.75.44L134,161Z"/><polygon class="cls-124" points="123.85 150.64 125.1 150.03 131.39 162.42 129.83 163.18 123.85 150.64"/><path class="cls-125" d="M120.42,152.15s.33-.12.65-.27l.64-.28,5.46,12.78-.8.35c-.39.17-.8.32-.8.32Z"/><polygon class="cls-126" points="116.9 153.41 118.23 152.97 122.84 166.08 121.19 166.62 116.9 153.41"/><polygon class="cls-127" points="113.31 154.45 114.66 154.09 118.4 167.47 116.73 167.92 113.31 154.45"/><path class="cls-128" d="M109.66,155.25l.68-.12L111,155l2.86,13.59-.84.19-.86.15Z"/><polygon class="cls-129" points="105.96 155.8 107.34 155.63 109.31 169.39 107.58 169.6 105.96 155.8"/><polygon class="cls-130" points="102.23 156.13 103.62 156.03 104.68 169.88 102.95 170.01 102.23 156.13"/><path class="cls-131" d="M98.49,156.19l.7,0h.7l.14,13.89h-.27c-.16,0-.38,0-.6,0l-.87,0Z"/><path class="cls-132" d="M85.14,154.39l.26.07.58.15.85.19-1.19,5.28-.94-.21-.63-.16-.29-.08Z"/><path class="cls-133" d="M81.64,153.35l.83.28c.41.14.83.25.83.25L81.5,160s-.47-.13-.93-.29l-.92-.3Z"/><polygon class="cls-134" points="78.21 152.1 79.83 152.73 77.32 159.58 75.48 158.87 78.21 152.1"/><path class="cls-135" d="M74.86,150.64l.25.11.54.25.8.35-3.33,7.54-.91-.41-.63-.28-.28-.13Z"/><path class="cls-136" d="M71.62,148.94l.75.43.78.4-4.24,8.14-.9-.46-.88-.5Z"/><path class="cls-137" d="M68.48,147.05l.74.47.5.33L70,148l-5.24,8.66-.27-.16-.6-.38-.86-.56Z"/><polygon class="cls-138" points="65.48 144.98 66.89 145.99 60.58 155.08 58.89 153.87 65.48 144.98"/><path class="cls-139" d="M62.61,142.71l.21.18.47.38.68.54-7.48,9.4-.82-.66-.57-.45-.25-.22Z"/><path class="cls-140" d="M59.91,140.26l.62.61.45.4.2.18-8.7,9.6-.25-.23c-.15-.13-.35-.3-.54-.49l-.77-.75Z"/><polygon class="cls-141" points="57.37 137.64 58.55 138.92 48.58 148.59 47.09 147 57.37 137.64"/><path class="cls-142" d="M35.28,64.47l-.11.19-.3.57c-.25.5-.62,1.23-1.1,2.16s-1,2.11-1.57,3.43c-.31.66-.57,1.4-.87,2.16s-.63,1.56-.9,2.42a72.71,72.71,0,0,0-4,25.91,73.72,73.72,0,0,0,1.73,13.94A76.37,76.37,0,0,0,31.77,127c.72,1.64,1.35,3.16,2,4.46l.9,1.84c.31.55.59,1.06.84,1.52.51.91.9,1.64,1.21,2.11l.45.73L34.88,139s-.16-.27-.47-.76-.72-1.24-1.25-2.19c-.26-.48-.55-1-.87-1.58l-.94-1.9c-.69-1.35-1.34-2.93-2.08-4.63a78.35,78.35,0,0,1-3.78-12.14,75.8,75.8,0,0,1-.78-29A76.74,76.74,0,0,1,27.87,74.5c.29-.89.64-1.71.94-2.5s.58-1.55.9-2.24c.63-1.37,1.13-2.6,1.63-3.56L32.48,64l.31-.59.11-.2Z"/><path class="cls-143" d="M62.21,64.44a3.09,3.09,0,0,0-.33.35l-.88,1-.63.71-.7.88-.8,1c-.29.35-.54.75-.84,1.15a51.33,51.33,0,0,0-3.59,5.73,58.54,58.54,0,0,0-3.15,7.08,56,56,0,0,0-2,7.45c-.2,1.22-.43,2.39-.53,3.52s-.21,2.19-.29,3.17,0,1.89-.09,2.7,0,1.5,0,2.07a13.33,13.33,0,0,0,.07,1.34l0,.47-2.7.2s0-.17,0-.5-.06-.8-.07-1.4,0-1.35,0-2.19,0-1.8.09-2.84.13-2.16.3-3.34.35-2.43.56-3.71a59,59,0,0,1,2.14-7.85A60.16,60.16,0,0,1,52.05,74a55.4,55.4,0,0,1,3.79-6c.31-.42.58-.84.88-1.21l.84-1c.26-.33.5-.65.74-.93L59,64c.4-.46.72-.81.93-1.06l.34-.36Z"/><path class="cls-144" d="M51.08,100.64s0,.4,0,1.09c0,.35.06.77.1,1.25s0,1,.14,1.62a47.7,47.7,0,0,0,4.95,16.65c.25.55.53,1,.76,1.44l.6,1.09.58.93-4.61,2.83-.63-1c-.19-.33-.42-.74-.67-1.21s-.57-1-.85-1.6a52.12,52.12,0,0,1-3.59-9,53.14,53.14,0,0,1-1.91-9.5c-.09-.66-.11-1.26-.16-1.8s-.07-1-.1-1.39c0-.77,0-1.21,0-1.21Z"/><path class="cls-145" d="M98,48.41h-.41c-.27,0-.67,0-1.17.06l-1.8.13c-.7.07-1.48.18-2.34.28a52.56,52.56,0,0,0-12.16,3.28,51.85,51.85,0,0,0-11,6.15c-.67.53-1.32,1-1.85,1.43l-1.39,1.16c-.39.32-.66.6-.86.78l-.3.28-1.84-2,.32-.3c.21-.19.49-.49.91-.82l1.45-1.22c.57-.47,1.25-.95,2-1.51a53.64,53.64,0,0,1,24.37-9.93l2.45-.3,1.9-.14c.53-.05.94,0,1.23-.05h.43Z"/><path class="cls-146" d="M55.85,40.79l-.78.59c-.49.38-1.21.89-2,1.59a72,72,0,0,0-5.75,5.25l-1.47,1.52-1.36,1.53c-.89,1-1.66,2-2.32,2.79l-.9,1.14c-.26.34-.47.65-.66.9l-.56.79-2.2-1.57.58-.82c.19-.26.41-.58.69-.94L40,52.38c.68-.86,1.48-1.87,2.41-2.89l1.4-1.59,1.53-1.57a72,72,0,0,1,6-5.46c.83-.72,1.58-1.25,2.09-1.64l.8-.62Z"/><path class="cls-147" d="M32.94,69.06l-.39.88c-.25.57-.63,1.37-1,2.37a68.24,68.24,0,0,0-2.5,7.37c-.19.68-.38,1.36-.56,2s-.31,1.35-.46,2-.29,1.27-.4,1.87-.2,1.17-.29,1.69-.17,1-.24,1.43-.1.8-.14,1.11c-.08.62-.12,1-.12,1l-5.33-.63s0-.38.12-1c.05-.33.09-.74.16-1.19s.16-1,.26-1.54.2-1.17.31-1.82.28-1.31.43-2l.49-2.15c.19-.72.39-1.45.59-2.19a79.25,79.25,0,0,1,2.69-7.91c.4-1.07.81-1.93,1.08-2.54s.42-1,.42-1Z"/><path class="cls-148" d="M79,29.26l-.24.07c-.16,0-.4.11-.69.21l-2.44.79c-1,.33-2.16.79-3.4,1.26s-2.52,1.06-3.81,1.65a74.33,74.33,0,0,0-6.86,3.67l-2.19,1.35-.8.55-2.22-3.29.85-.58,2.3-1.43a78.73,78.73,0,0,1,7.24-3.87c1.35-.62,2.72-1.22,4-1.74s2.52-1,3.58-1.33l2.57-.84.73-.22.25-.07Z"/><path class="cls-149" d="M97.26,23.73s-.67,0-1.84.06l-2.1.15L92,24l-1.43.17a75.88,75.88,0,0,0-27.81,8.92c-1.77.94-3.17,1.85-4.17,2.46-.5.31-.88.56-1.14.74l-.4.27-1.51-2.24.42-.28c.26-.19.66-.46,1.17-.77,1-.63,2.49-1.58,4.32-2.55a78.66,78.66,0,0,1,28.8-9.24l1.48-.17,1.34-.1,2.18-.16c1.21-.06,1.9-.07,1.9-.07Z"/><path class="cls-150" d="M49.93,127.35l.33.61c.17.31.36.6.36.6l-11.93,7.12s-.23-.37-.44-.75l-.42-.76Z"/><polygon class="cls-151" points="48.2 124.03 48.81 125.29 36.44 131.61 35.67 130.05 48.2 124.03"/><path class="cls-152" d="M46.68,120.62l.08.2.19.44.28.64-12.76,5.49-.35-.79-.23-.55a2.05,2.05,0,0,1-.1-.25Z"/><path class="cls-153" d="M45.41,117.1s.11.33.21.66c.06.17.11.33.15.46l.08.2-13.09,4.65-.1-.25c0-.16-.12-.36-.18-.57-.14-.41-.27-.83-.27-.83Z"/><polygon class="cls-154" points="44.35 113.51 44.72 114.85 31.35 118.64 30.9 116.96 44.35 113.51"/><path class="cls-155" d="M43.54,109.85s0,.09,0,.22.05.3.09.47c.08.34.15.68.15.68l-13.58,2.9s-.1-.42-.19-.85a5.74,5.74,0,0,1-.11-.58l-.05-.27Z"/><polygon class="cls-156" points="42.98 106.16 43.15 107.54 29.4 109.55 29.19 107.82 42.98 106.16"/><polygon class="cls-157" points="42.64 102.43 42.74 103.82 28.9 104.92 28.77 103.19 42.64 102.43"/><path class="cls-158" d="M42.57,98.69l0,.7,0,.7-13.89.18,0-.86,0-.87Z"/><polygon class="cls-159" points="42.74 94.96 42.64 96.35 28.77 95.62 28.89 93.89 42.74 94.96"/><polygon class="cls-160" points="43.14 91.25 42.97 92.63 29.18 90.98 29.39 89.26 43.14 91.25"/><path class="cls-161" d="M43.81,87.57s-.08.34-.15.68a3.47,3.47,0,0,0-.09.47,2.13,2.13,0,0,0,0,.22L29.87,86.38l.05-.27c0-.16.06-.38.11-.59.1-.42.19-.85.19-.85Z"/><polygon class="cls-162" points="44.71 83.95 44.34 85.29 30.88 81.83 31.34 80.16 44.71 83.95"/><polygon class="cls-163" points="45.83 80.38 45.4 81.71 32.2 77.36 32.75 75.72 45.83 80.38"/><path class="cls-164" d="M47.22,76.91s-.15.32-.29.64-.25.65-.25.65L33.79,73l.32-.8.36-.8Z"/><polygon class="cls-165" points="48.82 73.53 48.18 74.77 35.67 68.74 36.45 67.19 48.82 73.53"/><polygon class="cls-166" points="50.63 70.25 49.93 71.46 37.83 64.63 38.7 63.12 50.63 70.25"/><path class="cls-167" d="M58.86,59.57l-.6.62-.42.43-.19.2-4-3.67.21-.22.46-.47.66-.68Z"/><polygon class="cls-168" points="61.5 57.04 60.22 58.23 55.84 53.63 57.26 52.31 61.5 57.04"/><path class="cls-169" d="M64.3,54.7l-.22.17c-.13.09-.3.23-.47.37L63,55.8l-4.68-5.6.75-.63.53-.42L59.8,49Z"/><path class="cls-170" d="M67.25,52.55l-.72.49-.5.34-.21.17L61,46.89l.25-.18.56-.39.82-.57Z"/><polygon class="cls-171" points="70.32 50.58 68.84 51.49 63.91 43.75 65.63 42.68 70.32 50.58"/><path class="cls-172" d="M73.52,48.82l-.24.12-.53.28-.77.42-4.87-8.87.9-.5c.22-.13.45-.25.62-.33l.29-.14Z"/><path class="cls-173" d="M76.83,47.27l-.8.35-.55.23-.24.12-4.7-10,.3-.14.65-.29,1-.41Z"/><polygon class="cls-174" points="80.23 45.92 78.6 46.54 74.21 35.36 76.19 34.61 80.23 45.92"/><path class="cls-175" d="M83.71,44.8l-.26.07a5.23,5.23,0,0,0-.58.18l-.83.27L78.09,33l1-.33.7-.21.33-.08Z"/><path class="cls-176" d="M87.25,43.91l-.85.19-.58.13-.27.07L82.17,30.83l.33-.09.72-.16,1.06-.24Z"/><path class="cls-177" d="M161.66,61.36s-.15-.26-.45-.73-.72-1.19-1.32-2.05-1.29-1.93-2.19-3.08c-.45-.58-.91-1.2-1.42-1.84l-1.66-2a75,75,0,0,0-8.78-8.58,73.33,73.33,0,0,0-24.57-13.34,75,75,0,0,0-12-2.69l-2.56-.31c-.81-.09-1.59-.13-2.32-.19-1.46-.12-2.73-.13-3.78-.16l-1.4,0-1,0-.86,0-.08-2.7.89,0,1.08,0,1.45,0c1.08,0,2.41,0,3.92.16.75.07,1.56.1,2.4.2l2.66.32a77.47,77.47,0,0,1,12.42,2.79,76.05,76.05,0,0,1,13.41,5.69A75,75,0,0,1,147.56,41a78.34,78.34,0,0,1,9.11,8.9L158.39,52l1.47,1.92c.93,1.19,1.65,2.3,2.27,3.19s1.07,1.63,1.38,2.12.47.76.47.76Z"/><path class="cls-178" d="M148.2,84.68,147.64,83c-.15-.56-.44-1.2-.71-2s-.65-1.58-1-2.49c-.18-.46-.41-.92-.65-1.4s-.47-1-.73-1.48c-.56-1-1.1-2-1.78-3.09s-1.38-2.1-2.11-3.17l-1.18-1.55c-.39-.53-.85-1-1.26-1.52a50.36,50.36,0,0,0-10.83-9.54L126.16,56c-.38-.25-.77-.44-1.11-.65-.71-.39-1.3-.77-1.82-1l-1.62-.82,1.18-2.44,1.7.87c.56.26,1.18.66,1.92,1.07.36.22.77.42,1.16.69l1.26.81a52.94,52.94,0,0,1,11.41,10c.44.54.91,1,1.32,1.6l1.25,1.64c.77,1.13,1.56,2.22,2.22,3.34s1.29,2.21,1.87,3.25c.28.53.52,1.06.77,1.56s.5,1,.69,1.47c.41,1,.82,1.83,1.09,2.63s.59,1.47.76,2.06c.37,1.15.59,1.81.59,1.81Z"/><path class="cls-179" d="M122.42,56.94l-.25-.13-.72-.37-1.12-.57c-.44-.22-1-.42-1.49-.67a47.56,47.56,0,0,0-8.24-2.8,47,47,0,0,0-8.6-1.25c-.59,0-1.13,0-1.62,0s-.9,0-1.25,0l-1.09,0-.15-5.4,1.21,0c.39,0,.86,0,1.39,0s1.14,0,1.8,0a52.75,52.75,0,0,1,9.57,1.4A53.74,53.74,0,0,1,121,50.26c.6.27,1.16.5,1.64.74l1.25.64.8.4.28.15Z"/><path class="cls-180" d="M144.23,123.67l.72-1.42c.23-.45.52-1,.79-1.63s.63-1.35.93-2.16a51.07,51.07,0,0,0,3.24-12.14l.21-1.7c.07-.56.08-1.13.13-1.7.11-1.12.09-2.23.13-3.3,0-.54,0-1.07,0-1.59s0-1-.06-1.51c-.09-1-.1-1.92-.24-2.77-.17-1.71-.46-3.12-.61-4.11s-.35-1.54-.35-1.54l2.64-.6.36,1.62c.17,1,.47,2.53.65,4.33.14.9.16,1.88.26,2.91.05.52,0,1,.06,1.6s0,1.1,0,1.66c0,1.14,0,2.31-.14,3.49,0,.59-.06,1.19-.14,1.79s-.15,1.19-.22,1.79a54.35,54.35,0,0,1-3.41,12.79c-.32.85-.7,1.59-1,2.27s-.59,1.25-.83,1.72l-.76,1.48Z"/><path class="cls-181" d="M171.87,91s0-.35-.12-1c0-.31-.08-.68-.14-1.11s-.15-.9-.23-1.42c-.18-1-.38-2.27-.69-3.56-.14-.65-.29-1.32-.44-2s-.37-1.35-.55-2a69.68,69.68,0,0,0-2.47-7.38c-.37-1-.75-1.79-1-2.36l-.38-.89,2.46-1.12.41.93c.24.59.64,1.42,1,2.45a78,78,0,0,1,2.56,7.64c.19.71.38,1.42.57,2.11s.31,1.4.46,2.07c.32,1.34.52,2.61.7,3.69.1.55.19,1,.25,1.48s.11.83.14,1.15c.08.64.13,1,.13,1Z"/><path class="cls-182" d="M158.87,57l-.15-.21c-.09-.14-.23-.34-.42-.58-.37-.5-.91-1.2-1.55-2.05s-1.47-1.78-2.32-2.8-1.85-2-2.82-3.06-2-2-3-2.88-1.91-1.73-2.74-2.38l-2-1.6c-.24-.2-.44-.35-.57-.44l-.21-.15,3.21-4.3.22.16c.15.1.35.26.61.46l2.16,1.72c.9.71,1.87,1.62,2.95,2.56s2.13,2,3.22,3.09,2.1,2.22,3,3.29,1.8,2.1,2.49,3l1.66,2.19c.21.27.36.48.46.63l.16.22Z"/><path class="cls-183" d="M170.31,116.84s.3-1.39.76-3.46c.18-1,.4-2.27.61-3.59s.36-2.72.46-4.13.23-2.83.23-4.16c0-.66,0-1.3,0-1.91s0-1.18,0-1.71c0-2.13-.16-3.54-.16-3.54l4-.28s0,.37.07,1,.06,1.58.1,2.7c0,.56,0,1.17,0,1.81s0,1.32,0,2c0,1.4-.14,2.89-.25,4.38s-.33,3-.49,4.36-.45,2.67-.64,3.78l-.8,3.65Z"/><path class="cls-184" d="M166,135.42l.84-1.64,1-1.87,1.11-2.5a75.7,75.7,0,0,0,4.5-14,74.74,74.74,0,0,0,1.7-14.6c0-.5,0-1,0-1.44s0-.89,0-1.29c0-.82-.05-1.53-.06-2.11s-.07-1-.09-1.36,0-.48,0-.48l2.7-.19s0,.18,0,.5.07.8.08,1.4,0,1.34.06,2.19c0,.42,0,.87,0,1.34s0,1,0,1.49A77.33,77.33,0,0,1,176,116a79.79,79.79,0,0,1-4.66,14.49c-.43.94-.82,1.81-1.16,2.58l-1,1.94c-.55,1.08-.87,1.69-.87,1.69Z"/><path class="cls-185" d="M99.89,42.59H99.2l-.7,0-.23-13.89.87,0c.43,0,.87,0,.87,0Z"/><polygon class="cls-186" points="103.63 42.75 102.24 42.65 102.93 28.78 104.66 28.9 103.63 42.75"/><polygon class="cls-187" points="107.34 43.14 105.96 42.98 107.57 29.18 109.29 29.39 107.34 43.14"/><path class="cls-188" d="M111,43.8l-.68-.16-.69-.11,2.52-13.67L113,30l.85.19Z"/><polygon class="cls-189" points="114.65 44.69 113.3 44.32 116.72 30.85 118.4 31.31 114.65 44.69"/><polygon class="cls-190" points="118.21 45.8 116.89 45.37 121.19 32.16 122.84 32.7 118.21 45.8"/><path class="cls-191" d="M121.7,47.17s-.32-.15-.65-.28l-.65-.25,5.17-12.9.81.32c.4.16.79.34.79.34Z"/><polygon class="cls-192" points="125.08 48.77 123.84 48.13 129.83 35.6 131.38 36.38 125.08 48.77"/><polygon class="cls-193" points="128.37 50.56 127.15 49.87 133.95 37.75 135.45 38.61 128.37 50.56"/><path class="cls-194" d="M131.53,52.57l-.18-.13-.4-.25-.59-.38,7.56-11.65.73.47c.19.11.37.23.5.32l.23.16Z"/><path class="cls-195" d="M134.53,54.79l-.54-.43a6.36,6.36,0,0,0-.56-.42l8.32-11.13s.35.25.69.52l.68.54Z"/><polygon class="cls-196" points="137.39 57.2 136.35 56.27 145.38 45.72 146.68 46.87 137.39 57.2"/><path class="cls-197" d="M140.1,59.77l-.5-.48-.5-.49,9.71-9.93.62.6.62.61Z"/><path class="cls-198" d="M142.6,62.55l-.45-.54c-.22-.27-.46-.52-.46-.52L152,52.22s.3.32.58.65.55.67.55.67Z"/><polygon class="cls-199" points="144.93 65.47 144.08 64.36 155.03 55.8 156.08 57.18 144.93 65.47"/><path class="cls-200" d="M147.07,68.53l-.12-.18-.27-.4c-.2-.28-.39-.57-.39-.57l11.48-7.82s.24.36.49.71l.33.5.15.23Z"/><path class="cls-201" d="M149,71.75l-.34-.62c-.08-.15-.17-.3-.23-.42l-.11-.18,12-7.05.14.23c.08.15.18.34.29.53.21.37.42.76.42.76Z"/><path class="cls-202" d="M154.09,84.23l-.22-.84c-.06-.21-.13-.42-.18-.57l-.08-.26L158.78,81s0,.11.09.29.13.39.19.62c.12.46.25.93.25.93Z"/><polygon class="cls-203" points="154.96 87.78 154.58 86.08 160.76 84.59 161.18 86.48 154.96 87.78"/><path class="cls-204" d="M155.6,91.38s0-.11,0-.27l-.11-.59-.14-.86,7.18-1.26s.09.49.17,1c0,.25.08.49.12.67s0,.3,0,.3Z"/><path class="cls-205" d="M156,95l-.06-.87c0-.22,0-.43-.06-.59s0-.27,0-.27l8.2-.9s0,.12,0,.31.05.43.06.68l.08,1Z"/><polygon class="cls-206" points="156.16 98.66 156.12 96.92 165.29 96.51 165.35 98.53 156.16 98.66"/><path class="cls-207" d="M156.11,102.31s0-.11,0-.27,0-.38,0-.6l0-.87,10.12.2s0,.51,0,1c0,.25,0,.51,0,.7s0,.32,0,.32Z"/><path class="cls-208" d="M155.79,106s.05-.43.11-.87c0-.21,0-.43,0-.59s0-.27,0-.27l11,.93,0,.32c0,.2,0,.46-.06.72-.06.51-.13,1-.13,1Z"/><polygon class="cls-209" points="155.26 109.56 155.55 107.84 167.43 109.63 167.07 111.71 155.26 109.56"/><polygon class="cls-210" points="154.5 113.13 154.88 111.43 167.54 114.18 167.06 116.27 154.5 113.13"/><path class="cls-211" d="M153.49,116.64s.13-.42.27-.83.23-.84.23-.84l13.36,3.82s-.14.52-.29,1l-.34,1Z"/></g></g></g></svg>